<?xml version="1.0" encoding="UTF-8"?>
<svg width="700px" height="580px" viewBox="0 0 700 580" version="1.1" xmlns="http://www.w3.org/2000/svg" xmlns:xlink="http://www.w3.org/1999/xlink">
    <!-- Generator: Sketch 51.2 (57519) - http://www.bohemiancoding.com/sketch -->
    <title>Group 5</title>
    <desc>Created with Sketch.</desc>
    <defs>
        <linearGradient x1="50%" y1="162.834742%" x2="50%" y2="11.4629184%" id="linearGradient-1">
            <stop stop-color="#3BCE86" offset="0%"></stop>
            <stop stop-color="#A3EF97" offset="52.3956828%"></stop>
            <stop stop-color="#616AEE" offset="100%"></stop>
        </linearGradient>
        <linearGradient x1="80.5496826%" y1="-514.707572%" x2="41.014799%" y2="240.196464%" id="linearGradient-2">
            <stop stop-color="#F9D5C5" offset="0%"></stop>
            <stop stop-color="#F78E6B" offset="100%"></stop>
        </linearGradient>
        <linearGradient x1="142.741516%" y1="-377.297297%" x2="47.7037708%" y2="65.4054054%" id="linearGradient-3">
            <stop stop-color="#F9D5C5" offset="0%"></stop>
            <stop stop-color="#F78E6B" offset="100%"></stop>
        </linearGradient>
        <linearGradient x1="2.63676441%" y1="138.016376%" x2="39.7006435%" y2="69.8561577%" id="linearGradient-4">
            <stop stop-color="#F9D5C5" offset="0%"></stop>
            <stop stop-color="#F78E6B" offset="100%"></stop>
        </linearGradient>
        <linearGradient x1="49.8460229%" y1="-2.04605964%" x2="49.8460229%" y2="-18.0297792%" id="linearGradient-5">
            <stop stop-color="#D1EFE7" offset="0%"></stop>
            <stop stop-color="#97EFE7" offset="53%"></stop>
            <stop stop-color="#3CCBE3" offset="100%"></stop>
        </linearGradient>
        <linearGradient x1="49.9527184%" y1="-2.02361945%" x2="49.9527184%" y2="-18.0157107%" id="linearGradient-6">
            <stop stop-color="#D1EFE7" offset="0%"></stop>
            <stop stop-color="#97EFE7" offset="53%"></stop>
            <stop stop-color="#3CCBE3" offset="100%"></stop>
        </linearGradient>
        <linearGradient x1="50.0293945%" y1="1198%" x2="50.0293945%" y2="-9%" id="linearGradient-7">
            <stop stop-color="#D1EFE7" offset="0%"></stop>
            <stop stop-color="#97EFE7" offset="53%"></stop>
            <stop stop-color="#3CCBE3" offset="100%"></stop>
        </linearGradient>
        <linearGradient x1="49.8817451%" y1="225.123153%" x2="49.8817451%" y2="-205.91133%" id="linearGradient-8">
            <stop stop-color="#FFFFFF" stop-opacity="0" offset="0%"></stop>
            <stop stop-color="#000000" offset="80%"></stop>
        </linearGradient>
        <linearGradient x1="100.79096%" y1="-37.8725453%" x2="42.4105461%" y2="71.4224136%" id="linearGradient-9">
            <stop stop-color="#3DB6D3" offset="0%"></stop>
            <stop stop-color="#3D6FD3" offset="50%"></stop>
            <stop stop-color="#252784" offset="100%"></stop>
        </linearGradient>
        <linearGradient x1="-105.469679%" y1="214.550609%" x2="-83.5909631%" y2="191.435348%" id="linearGradient-10">
            <stop stop-color="#3DB6D3" offset="0%"></stop>
            <stop stop-color="#3D6FD3" offset="50%"></stop>
            <stop stop-color="#252784" offset="100%"></stop>
        </linearGradient>
        <linearGradient x1="-75.8316038%" y1="144.944708%" x2="-54.8781343%" y2="129.304897%" id="linearGradient-11">
            <stop stop-color="#3DB6D3" offset="0%"></stop>
            <stop stop-color="#3D6FD3" offset="50%"></stop>
            <stop stop-color="#252784" offset="100%"></stop>
        </linearGradient>
        <linearGradient x1="223.534097%" y1="171.841661%" x2="44.9464246%" y2="55.0865413%" id="linearGradient-12">
            <stop stop-color="#F9D5C5" offset="0%"></stop>
            <stop stop-color="#F78E6B" offset="100%"></stop>
        </linearGradient>
        <linearGradient x1="88.9456196%" y1="268.46272%" x2="53.6574118%" y2="68.3354128%" id="linearGradient-13">
            <stop stop-color="#F9D5C5" offset="0%"></stop>
            <stop stop-color="#F78E6B" offset="100%"></stop>
        </linearGradient>
        <linearGradient x1="159.685475%" y1="48.6167891%" x2="-57.1193922%" y2="51.1514348%" id="linearGradient-14">
            <stop stop-color="#F29E93" offset="0%"></stop>
            <stop stop-color="#C1463D" offset="52%"></stop>
            <stop stop-color="#AD1D24" offset="100%"></stop>
        </linearGradient>
        <linearGradient x1="141.764706%" y1="35.4297694%" x2="-31.1764706%" y2="56.39413%" id="linearGradient-15">
            <stop stop-color="#FFFFFF" stop-opacity="0" offset="0%"></stop>
            <stop stop-color="#000000" offset="90%"></stop>
        </linearGradient>
        <linearGradient x1="-134.47372%" y1="104.365567%" x2="121.926653%" y2="23.5010534%" id="linearGradient-16">
            <stop stop-color="#F29E93" offset="0%"></stop>
            <stop stop-color="#C1463D" offset="52%"></stop>
            <stop stop-color="#AD1D24" offset="100%"></stop>
        </linearGradient>
        <linearGradient x1="50%" y1="177.330966%" x2="50%" y2="-126.503619%" id="linearGradient-17">
            <stop stop-color="#FFFFFF" stop-opacity="0" offset="0%"></stop>
            <stop stop-color="#000000" offset="80%"></stop>
        </linearGradient>
        <linearGradient x1="45.0233281%" y1="88.1512605%" x2="52.2550544%" y2="-21.092437%" id="linearGradient-18">
            <stop stop-color="#7FF1A4" offset="0%"></stop>
            <stop stop-color="#2FBCA4" offset="52%"></stop>
            <stop stop-color="#2F7DA4" offset="100%"></stop>
        </linearGradient>
        <linearGradient x1="-49.5344507%" y1="132.016807%" x2="90.1303538%" y2="-24.0336134%" id="linearGradient-19">
            <stop stop-color="#7FF1A4" offset="0%"></stop>
            <stop stop-color="#2FBCA4" offset="52%"></stop>
            <stop stop-color="#2F7DA4" offset="100%"></stop>
        </linearGradient>
        <linearGradient x1="50%" y1="2006.41026%" x2="50%" y2="-1848.71795%" id="linearGradient-20">
            <stop stop-color="#D1EFE7" offset="0%"></stop>
            <stop stop-color="#97EFE7" offset="53%"></stop>
            <stop stop-color="#3CCBE3" offset="100%"></stop>
        </linearGradient>
        <linearGradient x1="50%" y1="1708.62069%" x2="50%" y2="-3475.86207%" id="linearGradient-21">
            <stop stop-color="#D1EFE7" offset="0%"></stop>
            <stop stop-color="#97EFE7" offset="53%"></stop>
            <stop stop-color="#3CCBE3" offset="100%"></stop>
        </linearGradient>
        <linearGradient x1="50%" y1="2984.375%" x2="50%" y2="-2654.375%" id="linearGradient-22">
            <stop stop-color="#D1EFE7" offset="0%"></stop>
            <stop stop-color="#97EFE7" offset="53%"></stop>
            <stop stop-color="#3CCBE3" offset="100%"></stop>
        </linearGradient>
        <linearGradient x1="50%" y1="2221.25%" x2="50%" y2="-3416.875%" id="linearGradient-23">
            <stop stop-color="#D1EFE7" offset="0%"></stop>
            <stop stop-color="#97EFE7" offset="53%"></stop>
            <stop stop-color="#3CCBE3" offset="100%"></stop>
        </linearGradient>
        <linearGradient x1="50%" y1="273.130194%" x2="50%" y2="-120.083102%" id="linearGradient-24">
            <stop stop-color="#7FF1A4" offset="0%"></stop>
            <stop stop-color="#2FBCA4" offset="52%"></stop>
            <stop stop-color="#2F7DA4" offset="100%"></stop>
        </linearGradient>
        <linearGradient x1="99.939976%" y1="153.928673%" x2="28.0312125%" y2="-19.0391005%" id="linearGradient-25">
            <stop stop-color="#7FF1A4" offset="0%"></stop>
            <stop stop-color="#2FBCA4" offset="52%"></stop>
            <stop stop-color="#2F7DA4" offset="100%"></stop>
        </linearGradient>
        <linearGradient x1="-41.529664%" y1="328.750902%" x2="79.1279485%" y2="-78.7164239%" id="linearGradient-26">
            <stop stop-color="#7FF1A4" offset="0%"></stop>
            <stop stop-color="#2FBCA4" offset="52%"></stop>
            <stop stop-color="#2F7DA4" offset="100%"></stop>
        </linearGradient>
        <linearGradient x1="206%" y1="-243%" x2="-794%" y2="964%" id="linearGradient-27">
            <stop stop-color="#FFFFFF" stop-opacity="0" offset="0%"></stop>
            <stop stop-color="#000000" offset="90%"></stop>
        </linearGradient>
        <linearGradient x1="137.340659%" y1="-9.20025453%" x2="-1.9875199%" y2="79.3515964%" id="linearGradient-28">
            <stop stop-color="#182EBD" offset="0%"></stop>
            <stop stop-color="#0D1226" offset="58%"></stop>
        </linearGradient>
        <linearGradient x1="-0.34965035%" y1="50%" x2="100%" y2="50%" id="linearGradient-29">
            <stop stop-color="#F29E93" offset="0%"></stop>
            <stop stop-color="#C1463D" offset="52%"></stop>
            <stop stop-color="#AD1D24" offset="100%"></stop>
        </linearGradient>
        <linearGradient x1="204.396714%" y1="1.59100536%" x2="11.2628877%" y2="58.3986935%" id="linearGradient-30">
            <stop stop-color="#182EBD" offset="0%"></stop>
            <stop stop-color="#0D1226" offset="58%"></stop>
        </linearGradient>
        <linearGradient x1="50.0610501%" y1="106.791908%" x2="50.0610501%" y2="11.849711%" id="linearGradient-31">
            <stop stop-color="#FFFFFF" stop-opacity="0" offset="0%"></stop>
            <stop stop-color="#000000" offset="100%"></stop>
        </linearGradient>
        <linearGradient x1="49.8470948%" y1="127.267914%" x2="49.8470948%" y2="-44.3168851%" id="linearGradient-32">
            <stop stop-color="#FFFFFF" stop-opacity="0" offset="0%"></stop>
            <stop stop-color="#000000" offset="83%"></stop>
        </linearGradient>
        <linearGradient x1="49.9851235%" y1="303.738318%" x2="49.9851235%" y2="-157.009346%" id="linearGradient-33">
            <stop stop-color="#FFFFFF" stop-opacity="0" offset="0%"></stop>
            <stop stop-color="#000000" offset="83%"></stop>
        </linearGradient>
        <linearGradient x1="50.9023462%" y1="-170%" x2="50.9023462%" y2="250%" id="linearGradient-34">
            <stop stop-color="#FFFFFF" stop-opacity="0" offset="0%"></stop>
            <stop stop-color="#000000" offset="83%"></stop>
        </linearGradient>
        <linearGradient x1="50.0610501%" y1="181.358382%" x2="50.0610501%" y2="58.5260116%" id="linearGradient-35">
            <stop stop-color="#D1EFE7" offset="0%"></stop>
            <stop stop-color="#97EFE7" offset="53%"></stop>
            <stop stop-color="#3CCBE3" offset="100%"></stop>
        </linearGradient>
        <linearGradient x1="49.8779744%" y1="61.2930853%" x2="49.8779744%" y2="-31.4301953%" id="linearGradient-36">
            <stop stop-color="#D1EFE7" offset="0%"></stop>
            <stop stop-color="#97EFE7" offset="53%"></stop>
            <stop stop-color="#3CCBE3" offset="100%"></stop>
        </linearGradient>
        <linearGradient x1="49.8470948%" y1="180.933489%" x2="49.8470948%" y2="-57.6607579%" id="linearGradient-37">
            <stop stop-color="#D1EFE7" offset="0%"></stop>
            <stop stop-color="#97EFE7" offset="53%"></stop>
            <stop stop-color="#3CCBE3" offset="100%"></stop>
        </linearGradient>
        <linearGradient x1="49.9851235%" y1="118.755981%" x2="49.9851235%" y2="36.4114833%" id="linearGradient-38">
            <stop stop-color="#D1EFE7" offset="0%"></stop>
            <stop stop-color="#97EFE7" offset="53%"></stop>
            <stop stop-color="#3CCBE3" offset="100%"></stop>
        </linearGradient>
        <linearGradient x1="50.1355014%" y1="129.775012%" x2="50.1355014%" y2="79.7989469%" id="linearGradient-39">
            <stop stop-color="#D1EFE7" offset="0%"></stop>
            <stop stop-color="#97EFE7" offset="53%"></stop>
            <stop stop-color="#3CCBE3" offset="100%"></stop>
        </linearGradient>
        <linearGradient x1="50%" y1="138.645418%" x2="50%" y2="52.1912351%" id="linearGradient-40">
            <stop stop-color="#3DB6D3" offset="0%"></stop>
            <stop stop-color="#3D6FD3" offset="50%"></stop>
            <stop stop-color="#252784" offset="100%"></stop>
        </linearGradient>
        <linearGradient x1="-331.165312%" y1="147.638019%" x2="-331.165312%" y2="74.2743312%" id="linearGradient-41">
            <stop stop-color="#3DB6D3" offset="0%"></stop>
            <stop stop-color="#3D6FD3" offset="50%"></stop>
            <stop stop-color="#252784" offset="100%"></stop>
        </linearGradient>
        <linearGradient x1="49.9851235%" y1="322.429907%" x2="49.9851235%" y2="-163.551402%" id="linearGradient-42">
            <stop stop-color="#D1EFE7" offset="0%"></stop>
            <stop stop-color="#97EFE7" offset="53%"></stop>
            <stop stop-color="#3CCBE3" offset="100%"></stop>
        </linearGradient>
        <linearGradient x1="49.7409326%" y1="998.130841%" x2="49.7409326%" y2="-45.7943925%" id="linearGradient-43">
            <stop stop-color="#D1EFE7" offset="0%"></stop>
            <stop stop-color="#97EFE7" offset="53%"></stop>
            <stop stop-color="#3CCBE3" offset="100%"></stop>
        </linearGradient>
        <linearGradient x1="50%" y1="517.910448%" x2="50%" y2="317.164179%" id="linearGradient-44">
            <stop stop-color="#D1EFE7" offset="0%"></stop>
            <stop stop-color="#97EFE7" offset="53%"></stop>
            <stop stop-color="#3CCBE3" offset="100%"></stop>
        </linearGradient>
        <linearGradient x1="50.2477114%" y1="81.7367726%" x2="50.2477114%" y2="-137.421956%" id="linearGradient-45">
            <stop stop-color="#D1EFE7" offset="0%"></stop>
            <stop stop-color="#97EFE7" offset="53%"></stop>
            <stop stop-color="#3CCBE3" offset="100%"></stop>
        </linearGradient>
        <linearGradient x1="50%" y1="88.6956522%" x2="50%" y2="-268.26087%" id="linearGradient-46">
            <stop stop-color="#3DB6D3" offset="0%"></stop>
            <stop stop-color="#3D6FD3" offset="50%"></stop>
            <stop stop-color="#252784" offset="100%"></stop>
        </linearGradient>
        <linearGradient x1="46%" y1="106.369427%" x2="46%" y2="-95.5414013%" id="linearGradient-47">
            <stop stop-color="#FFFFFF" offset="0%"></stop>
            <stop stop-color="#CDDFEC" offset="84%"></stop>
        </linearGradient>
        <linearGradient x1="45%" y1="106.369427%" x2="45%" y2="-95.5414013%" id="linearGradient-48">
            <stop stop-color="#FFFFFF" offset="0%"></stop>
            <stop stop-color="#CDDFEC" offset="84%"></stop>
        </linearGradient>
        <linearGradient x1="53.2630106%" y1="150.338357%" x2="53.2630106%" y2="-479.321595%" id="linearGradient-49">
            <stop stop-color="#FFFFFF" offset="0%"></stop>
            <stop stop-color="#CDDFEC" offset="84%"></stop>
        </linearGradient>
        <linearGradient x1="50%" y1="159.319527%" x2="50%" y2="-60.2071006%" id="linearGradient-50">
            <stop stop-color="#3DB6D3" offset="0%"></stop>
            <stop stop-color="#3D6FD3" offset="50%"></stop>
            <stop stop-color="#252784" offset="100%"></stop>
        </linearGradient>
        <linearGradient x1="50%" y1="1763.33333%" x2="50%" y2="-710%" id="linearGradient-51">
            <stop stop-color="#3DB6D3" offset="0%"></stop>
            <stop stop-color="#3D6FD3" offset="50%"></stop>
            <stop stop-color="#252784" offset="100%"></stop>
        </linearGradient>
        <linearGradient x1="50%" y1="1521.66667%" x2="50%" y2="-951.666667%" id="linearGradient-52">
            <stop stop-color="#3DB6D3" offset="0%"></stop>
            <stop stop-color="#3D6FD3" offset="50%"></stop>
            <stop stop-color="#252784" offset="100%"></stop>
        </linearGradient>
        <linearGradient x1="50%" y1="1281.66667%" x2="50%" y2="-1191.66667%" id="linearGradient-53">
            <stop stop-color="#3DB6D3" offset="0%"></stop>
            <stop stop-color="#3D6FD3" offset="50%"></stop>
            <stop stop-color="#252784" offset="100%"></stop>
        </linearGradient>
        <linearGradient x1="50%" y1="1040%" x2="50%" y2="-1433.33333%" id="linearGradient-54">
            <stop stop-color="#3DB6D3" offset="0%"></stop>
            <stop stop-color="#3D6FD3" offset="50%"></stop>
            <stop stop-color="#252784" offset="100%"></stop>
        </linearGradient>
        <linearGradient x1="49.8933902%" y1="798.333333%" x2="49.8933902%" y2="-1675%" id="linearGradient-55">
            <stop stop-color="#3DB6D3" offset="0%"></stop>
            <stop stop-color="#3D6FD3" offset="50%"></stop>
            <stop stop-color="#252784" offset="100%"></stop>
        </linearGradient>
        <linearGradient x1="50%" y1="663.636364%" x2="50%" y2="-609.090909%" id="linearGradient-56">
            <stop stop-color="#FFFFFF" offset="0%"></stop>
            <stop stop-color="#CDDFEC" offset="84%"></stop>
        </linearGradient>
        <linearGradient x1="50%" y1="890.909091%" x2="50%" y2="-572.727273%" id="linearGradient-57">
            <stop stop-color="#3DB6D3" offset="0%"></stop>
            <stop stop-color="#3D6FD3" offset="50%"></stop>
            <stop stop-color="#252784" offset="100%"></stop>
        </linearGradient>
        <linearGradient x1="8.33186433e-15%" y1="51.7412934%" x2="99.9998106%" y2="51.7412934%" id="linearGradient-58">
            <stop stop-color="#7FF1A4" offset="0%"></stop>
            <stop stop-color="#2FBCA4" offset="52%"></stop>
            <stop stop-color="#2F7DA4" offset="100%"></stop>
        </linearGradient>
        <linearGradient x1="56.9566634%" y1="472.636816%" x2="46.8556533%" y2="-135.820896%" id="linearGradient-59">
            <stop stop-color="#7FF1A4" offset="0%"></stop>
            <stop stop-color="#2FBCA4" offset="52%"></stop>
            <stop stop-color="#2F7DA4" offset="100%"></stop>
        </linearGradient>
        <linearGradient x1="177.977966%" y1="-3.5634691%" x2="-19.4512667%" y2="67.4834156%" id="linearGradient-60">
            <stop stop-color="#F9D5C5" offset="0%"></stop>
            <stop stop-color="#F78E6B" offset="100%"></stop>
        </linearGradient>
        <linearGradient x1="95.5975058%" y1="216.336436%" x2="49.5723444%" y2="50.7647196%" id="linearGradient-61">
            <stop stop-color="#F9D5C5" offset="0%"></stop>
            <stop stop-color="#F78E6B" offset="100%"></stop>
        </linearGradient>
        <linearGradient x1="50.3175515%" y1="235.511408%" x2="50.3175515%" y2="-38.5395357%" id="linearGradient-62">
            <stop stop-color="#EDD7AD" offset="2%"></stop>
            <stop stop-color="#FF9661" offset="52%"></stop>
            <stop stop-color="#E74A69" offset="100%"></stop>
        </linearGradient>
        <linearGradient x1="50%" y1="178.688525%" x2="50%" y2="-38.7978142%" id="linearGradient-63">
            <stop stop-color="#7FF1A4" offset="0%"></stop>
            <stop stop-color="#2FBCA4" offset="52%"></stop>
            <stop stop-color="#2F7DA4" offset="100%"></stop>
        </linearGradient>
        <linearGradient x1="-142.905207%" y1="173.103448%" x2="48.3400279%" y2="32.8275862%" id="linearGradient-64">
            <stop stop-color="#7FF1A4" offset="0%"></stop>
            <stop stop-color="#2FBCA4" offset="52%"></stop>
            <stop stop-color="#2F7DA4" offset="100%"></stop>
        </linearGradient>
        <linearGradient x1="49.8372463%" y1="280.130286%" x2="49.8372463%" y2="-152.431383%" id="linearGradient-65">
            <stop stop-color="#F7EDC8" offset="0%"></stop>
            <stop stop-color="#F7D466" offset="50%"></stop>
            <stop stop-color="#F79061" offset="100%"></stop>
        </linearGradient>
        <rect id="path-66" x="0" y="0" width="550" height="125" rx="5"></rect>
        <filter x="-0.8%" y="-2.8%" width="102.0%" height="108.8%" filterUnits="objectBoundingBox" id="filter-67">
            <feOffset dx="1" dy="2" in="SourceAlpha" result="shadowOffsetOuter1"></feOffset>
            <feGaussianBlur stdDeviation="1.5" in="shadowOffsetOuter1" result="shadowBlurOuter1"></feGaussianBlur>
            <feColorMatrix values="0 0 0 0 0   0 0 0 0 0   0 0 0 0 0  0 0 0 0.276126585 0" type="matrix" in="shadowBlurOuter1"></feColorMatrix>
        </filter>
    </defs>
    <g id="Page-1" stroke="none" stroke-width="1" fill="none" fill-rule="evenodd">
        <g id="Desktop-HD" transform="translate(-251.000000, -164.000000)">
            <g id="Group-5" transform="translate(251.000000, 164.000000)">
                <g id="3373517---computer-designer-people-woman">
                    <ellipse id="Oval" fill="url(#linearGradient-1)" fill-rule="nonzero" cx="289.896552" cy="290.175439" rx="289.655172" ry="289.824561"></ellipse>
                    <path d="M151.482759,318.122807 C151.482759,318.122807 173.413793,307.150877 178.586207,308.703509 C184.547402,310.085033 190.290722,312.279219 195.655172,315.224561 C198.658021,317.558453 200.414473,321.149823 200.413793,324.954386 L157.068966,327.749123" id="Shape" fill="url(#linearGradient-2)" fill-rule="nonzero"></path>
                    <path d="M174.137931,323.712281 C185.206897,320.296491 176.517241,315.224561 170.413793,313.361404 C164.310345,311.498246 177.241379,308.496491 177.241379,308.496491 L173.310345,309.117544 C165.811653,311.505297 158.513107,314.481799 151.482759,318.019298 L156.965517,327.645614 L167.310345,327.024561 C169.395377,325.563673 171.700289,324.445487 174.137931,323.712281 Z" id="Shape" fill="url(#linearGradient-3)" fill-rule="nonzero"></path>
                    <path d="M151.482759,323.712281 C151.482759,323.712281 75.2413793,343.689474 64.2758621,345.242105 C53.3103448,346.794737 43.5862069,355.592982 42.2413793,310.670175 C41,262.124561 41.7241379,259.122807 41.7241379,259.122807 C41.7241379,259.122807 39.5517241,195.982456 100.172414,229.519298" id="Shape" fill="url(#linearGradient-4)" fill-rule="nonzero"></path>
                    <path d="M216.551724,352.280702 L148.793103,352.280702 C143.765408,352.280702 139.689655,356.358838 139.689655,361.389474 C139.689655,366.42011 143.765408,370.498246 148.793103,370.498246 L216.551724,370.498246 C225.588367,370.50701 233.975903,375.197796 238.717864,382.894809 C243.459825,390.591823 243.879738,400.19703 239.827586,408.278947 L167.413793,552.363158 C172.896552,554.950877 178.482759,557.331579 184.172414,559.505263 L256.586207,416.352632 C263.527806,402.558747 262.77018,386.139849 254.587823,373.044654 C246.405467,359.949459 231.985241,352.07744 216.551724,352.280702 Z" id="Shape" fill="#CCDEF2" fill-rule="nonzero"></path>
                    <path d="M216.551724,352.280702 L148.793103,352.280702 C143.765408,352.280702 139.689655,356.358838 139.689655,361.389474 C139.689655,366.42011 143.765408,370.498246 148.793103,370.498246 L216.551724,370.498246 C225.588367,370.50701 233.975903,375.197796 238.717864,382.894809 C243.459825,390.591823 243.879738,400.19703 239.827586,408.278947 L167.413793,552.363158 C172.896552,554.950877 178.482759,557.331579 184.172414,559.505263 L256.586207,416.352632 C263.527806,402.558747 262.77018,386.139849 254.587823,373.044654 C246.405467,359.949459 231.985241,352.07744 216.551724,352.280702 Z" id="Shape" fill="url(#linearGradient-5)" fill-rule="nonzero"></path>
                    <path d="M444.241379,352.280702 L376.482759,352.280702 C371.455063,352.280702 367.37931,356.358838 367.37931,361.389474 C367.37931,366.42011 371.455063,370.498246 376.482759,370.498246 L444.241379,370.498246 C453.278022,370.50701 461.665558,375.197796 466.407519,382.894809 C471.149481,390.591823 471.569393,400.19703 467.517241,408.278947 L389.931034,561.989474 C398.758621,558.746199 407.413793,555.088889 415.896552,551.017544 L483.758621,416.45614 C490.706503,402.73631 490.026497,386.388973 481.963203,373.294298 C473.899909,360.199623 459.612952,352.240826 444.241379,352.280702 Z" id="Shape" fill="#CCDEF2" fill-rule="nonzero"></path>
                    <path d="M444.241379,352.280702 L376.482759,352.280702 C371.455063,352.280702 367.37931,356.358838 367.37931,361.389474 C367.37931,366.42011 371.455063,370.498246 376.482759,370.498246 L444.241379,370.498246 C453.278022,370.50701 461.665558,375.197796 466.407519,382.894809 C471.149481,390.591823 471.569393,400.19703 467.517241,408.278947 L389.931034,561.989474 C398.758621,558.746199 407.413793,555.088889 415.896552,551.017544 L483.758621,416.45614 C490.706503,402.73631 490.026497,386.388973 481.963203,373.294298 C473.899909,360.199623 459.612952,352.240826 444.241379,352.280702 Z" id="Shape" fill="url(#linearGradient-6)" fill-rule="nonzero"></path>
                    <path d="M159.034483,323.712281 L330.448276,323.712281 C332.962124,323.712281 335,325.751349 335,328.266667 L335,331.578947 L159.137931,331.578947 L159.137931,323.401754 L159.034483,323.712281 Z" id="Shape" fill="url(#linearGradient-7)" fill-rule="nonzero"></path>
                    <path d="M121.586207,333.131579 L121.586207,348.450877 L122.827586,352.591228 L267.655172,352.591228 L279.655172,331.578947 L122.724138,331.578947 C122.35155,331.598075 122.007315,331.783857 121.786691,332.084885 C121.566066,332.385913 121.492447,332.770263 121.586207,333.131579 Z" id="Shape" fill="url(#linearGradient-8)" fill-rule="nonzero" opacity="0.49" style="mix-blend-mode: color-burn;"></path>
                    <path d="M321.034483,578.34386 C293.931034,513.340351 230.724138,414.385965 84.5517241,372.982456 L69.0344828,369.25614 C57.2655854,393.709933 49.6109977,419.939604 46.3793103,446.887719 C59.6187071,467.641098 75.4344787,486.631123 93.4482759,503.403509 C143.827586,515.824561 217.586207,512.719298 217.586207,512.719298 L225.862069,572.754386 C256.958009,579.84144 289.011809,581.730117 320.724138,578.34386 L321.034483,578.34386 Z" id="Shape" fill="url(#linearGradient-9)" fill-rule="nonzero"></path>
                    <path d="M205.068966,509.614035 L204.448276,512.926316 L217.37931,512.926316 L225.655172,572.961404 C246.774265,577.699652 268.356591,580.060514 290,580 L291.448276,580 C276.137931,563.852632 285.241379,567.682456 268.793103,536.629825 C251.413793,504.024561 205.068966,509.614035 205.068966,509.614035 Z" id="Shape" fill="url(#linearGradient-10)" fill-rule="nonzero"></path>
                    <path d="M125.724138,451.442105 C81.0344828,427.014035 146.413793,397.514035 147.862069,396.789474 L67.1724138,372.982456 C56.34015,396.19543 49.3524115,421.016409 46.4827586,446.473684 C59.6606519,467.367151 75.4426272,486.497465 93.4482759,503.403509 L95.7241379,504.024561 C105.6095,497.930054 117.13438,495.038112 128.724138,495.74386 C172.275862,498.849123 170.931034,476.491228 125.724138,451.442105 Z" id="Shape" fill="url(#linearGradient-11)" fill-rule="nonzero"></path>
                    <path d="M132.448276,132.324561 C132.448276,132.324561 137,159.236842 134.413793,164.101754 C132.034926,167.729901 128.936371,170.830268 125.310345,173.210526" id="Shape" fill="#F9AA8F" fill-rule="nonzero"></path>
                    <path d="M132.448276,134.912281 C132.448276,134.912281 137.103448,166.585965 128.413793,182.836842 C119.724138,199.087719 114.344828,191.014035 110.310345,198.259649 C107.93325,201.914485 107.397603,206.470144 108.862069,210.577193 L61.0689655,208.092982 C66.0040931,201.319435 68.1518653,192.908584 67.0689655,184.596491 C66.2413793,168.345614 45.6551724,114.003509 82.4827586,107.585965 C119.310345,101.168421 131.413793,122.491228 132.448276,134.912281 Z" id="Shape" fill="url(#linearGradient-12)" fill-rule="nonzero"></path>
                    <path d="M100.896552,201.778947 C102.551724,194.015789 109.37931,196.085965 117.034483,194.533333 C120.386624,193.508376 123.253519,191.301782 125.103448,188.322807 C123.034483,191.42807 119,194.015789 115.896552,191.842105 C114.688008,182.633709 115.826768,173.269051 119.206897,164.619298 C120.034483,163.480702 125.827586,154.268421 125.103448,152.819298 C122.931034,149.196491 117.758621,162.238596 117.758621,162.238596 L66.0344828,178.696491 C66.47174,180.850134 66.7826166,183.027543 66.9655172,185.217544 C68.048417,193.529636 65.9006449,201.940488 60.9655172,208.714035 L93.3448276,210.370175 C96.8764913,208.589762 99.5826672,205.511078 100.896552,201.778947 Z" id="Shape" fill="url(#linearGradient-13)" fill-rule="nonzero"></path>
                    <path d="M46.2758621,224.447368 C37.0274345,259.060839 40.7052527,295.860528 56.6206897,327.95614 C83.4137931,383.540351 45.3448276,385.403509 52.4827586,394.822807 C59.6206897,404.242105 159.965517,403.724561 154.37931,391.096491 C146.081235,362.169329 144.909902,331.661364 150.965517,302.182456 C158.827586,271.129825 156.137931,256.638596 119.931034,234.073684 C107.62069,226.414035 123.655172,219.168421 125.724138,214.510526 C126.862069,211.922807 121.586207,208.817544 119.103448,207.368421 C90.5517241,191.014035 51.2413793,197.845614 50.7241379,203.22807 C49.61679,210.409197 47.9918622,217.500793 45.862069,224.447368" id="Shape" fill="url(#linearGradient-14)" fill-rule="nonzero"></path>
                    <path d="M149.724138,283.240351 C144.862069,282.412281 137.413793,270.094737 137.413793,270.094737 L145.172414,319.468421 L148.482759,318.329825 C149.060078,312.850731 150.028061,307.419934 151.37931,302.078947 C153.737618,294.113795 154.956619,285.854588 155,277.547368 C155,277.547368 154.37931,284.068421 149.724138,283.240351 Z" id="Shape" fill="url(#linearGradient-15)" fill-rule="nonzero" opacity="0.49" style="mix-blend-mode: color-burn;"></path>
                    <path d="M118.172414,377.122807 C137.827586,364.805263 110.827586,367.703509 107.827586,358.180702 C104.827586,348.657895 128.517241,327.12807 128.517241,327.12807 C128.517241,327.12807 123.034483,248.150877 113.62069,245.666667 C104.206897,243.182456 81.0344828,267.3 76.0689655,258.915789 C71.1034483,250.531579 83.1034483,236.454386 95.1034483,228.070175 C107.103448,219.685965 104.517241,219.892982 98.2068966,210.680702 C91.8965517,201.468421 108.551724,201.882456 108.551724,201.882456 L98.2068966,198.880702 C74.4137931,193.498246 50.9310345,198.880702 50.6206897,202.607018 C49.512987,209.788076 47.888065,216.879647 45.7586207,223.826316 C36.5101932,258.439786 40.1880113,295.239475 56.1034483,327.335088 C82.8965517,382.919298 44.8275862,384.782456 51.9655172,394.201754 C54.5517241,397.721053 69.6551724,399.791228 87.5517241,400.515789 C63.5517241,394.408772 98.7241379,389.233333 118.172414,377.122807 Z" id="Shape" fill="url(#linearGradient-16)" fill-rule="nonzero"></path>
                    <path d="M201.862069,511.477193 L133.068966,507.54386 C127.676888,507.792557 122.347139,506.305159 117.862069,503.3 C155.827586,539.217544 201.862069,511.270175 201.862069,511.270175 L201.862069,511.477193 Z" id="Shape" fill="url(#linearGradient-17)" fill-rule="nonzero" opacity="0.49" style="mix-blend-mode: color-burn;"></path>
                    <path d="M410.206897,463.345614 L410.206897,553.812281 C466.534352,527.983765 513.144128,484.828189 543.241379,430.636842 L442.896552,430.636842 C424.889526,430.749808 410.319797,445.328058 410.206897,463.345614 Z" id="Shape" fill="url(#linearGradient-18)" fill-rule="nonzero"></path>
                    <path d="M488.517241,501.126316 L488.517241,463.345614 C488.574032,445.247481 503.222789,430.590157 521.310345,430.533333 L443,430.533333 C424.912445,430.590157 410.263687,445.247481 410.206897,463.345614 L410.206897,553.708772 C439.005938,540.579538 465.459949,522.816663 488.517241,501.126316 Z" id="Shape" fill="url(#linearGradient-19)" fill-rule="nonzero"></path>
                    <ellipse id="Oval" fill="#FFFFFF" fill-rule="nonzero" cx="427.896552" cy="474.421053" rx="4.55172414" ry="4.55438596"></ellipse>
                    <ellipse id="Oval" fill="url(#linearGradient-20)" fill-rule="nonzero" cx="326.62069" cy="41.754386" rx="12.1034483" ry="12.1105263"></ellipse>
                    <ellipse id="Oval" fill="url(#linearGradient-21)" fill-rule="nonzero" cx="175.793103" cy="207.782456" rx="9" ry="9.00526316"></ellipse>
                    <ellipse id="Oval" fill="url(#linearGradient-22)" fill-rule="nonzero" cx="280.068966" cy="36.6824561" rx="8.27586207" ry="8.28070175"></ellipse>
                    <ellipse id="Oval" fill="url(#linearGradient-23)" fill-rule="nonzero" cx="186.862069" cy="146.919298" rx="8.27586207" ry="8.28070175"></ellipse>
                    <ellipse id="Oval" fill="url(#linearGradient-24)" fill-rule="nonzero" cx="341.310345" cy="437.364912" rx="37.3448276" ry="37.3666667"></ellipse>
                    <path d="M326.103448,440.263158 L332.413793,446.577193 C333.738666,447.865626 335.847541,447.865626 337.172414,446.577193 L356.413793,427.324561" id="Shape" stroke="#FFFFFF" stroke-width="7.75862069" stroke-linecap="round"></path>
                    <path d="M245.724138,560.850877 C233.206897,518.308772 225.034483,507.233333 184.793103,509.096491 C144.551724,510.959649 159.758621,496.261404 90.2413793,489.015789 C86.4512552,488.803054 82.6521931,488.803054 78.862069,489.015789 C124.384779,537.563749 185.262386,568.897854 251.206897,577.722807 C249.241379,571.719298 247.275862,566.129825 245.724138,560.850877 Z" id="Shape" fill="url(#linearGradient-25)" fill-rule="nonzero"></path>
                    <path d="M184.896552,509.2 C144.655172,511.166667 159.862069,496.364912 90.3448276,489.119298 C86.5547341,488.905472 82.7556107,488.905472 78.9655172,489.119298 C106.401809,518.060228 139.503921,541.033843 176.206897,556.607018 L176.206897,554.536842 C180.965517,505.680702 223.689655,516.445614 223.689655,516.445614 C214.896552,510.131579 203.206897,508.268421 184.896552,509.2 Z" id="Shape" fill="url(#linearGradient-26)" fill-rule="nonzero"></path>
                    <g id="Group" opacity="0.49" style="mix-blend-mode: color-burn;" transform="translate(114.137931, 238.421053)" fill="url(#linearGradient-27)" fill-rule="nonzero">
                        <polygon id="Shape" points="7.34482759 7.97017544 6 7.97017544 7.44827586 8.4877193"></polygon>
                    </g>
                    <path d="M68.3103448,192.049123 C68.3103448,192.049123 63.9655172,193.084211 63.7586207,188.840351 C63.5517241,184.596491 55.4827586,177.661404 48.2413793,166.792982 C42.862069,158.615789 35.8275862,104.687719 82.6896552,98.8912281 C129.551724,93.0947368 164.827586,134.912281 134.827586,161.410526 C123.672757,170.037844 113.630565,180.016372 104.931034,191.117544 C101,195.257895 83.1034483,188.840351 68.3103448,192.049123 Z" id="Shape" fill="url(#linearGradient-28)" fill-rule="nonzero"></path>
                    <ellipse id="Oval" fill="url(#linearGradient-29)" fill-rule="nonzero" cx="90.3448276" cy="116.591228" rx="14.7931034" ry="15.7333333"></ellipse>
                    <path d="M97.1724138,132.324561 C97.1724138,132.324561 114.137931,91.8526316 78.9655172,79.2245614 C43.7931034,66.5964912 18.5517241,109.242105 31.3793103,163.894737 C36.4482759,185.217544 35.8275862,197.949123 32.6206897,205.298246 C30.9707537,209.340217 31.3833349,213.931925 33.7273581,217.614605 C36.0713813,221.297285 40.0554311,223.613096 44.4137931,223.826316 C59.1034483,224.34386 74.8275862,217.201754 82.3793103,188.736842 C98.8275862,127.563158 97.1724138,132.324561 97.1724138,132.324561 Z" id="Shape" fill="url(#linearGradient-30)" fill-rule="nonzero"></path>
                    <path d="M440.827586,263.780702 L374.724138,263.780702 C375.409733,263.780702 375.965517,264.336811 375.965517,265.022807 L375.965517,316.777193 C375.965517,327.06713 367.628751,335.408772 357.344828,335.408772 L423.448276,335.408772 C433.732199,335.408772 442.068966,327.06713 442.068966,316.777193 L442.068966,265.022807 C442.068966,264.69338 441.938178,264.377446 441.705374,264.144506 C441.47257,263.911566 441.15682,263.780702 440.827586,263.780702 Z" id="Shape" fill="#CCDEF2" fill-rule="nonzero"></path>
                    <path d="M440.827586,263.780702 L374.724138,263.780702 C375.409733,263.780702 375.965517,264.336811 375.965517,265.022807 L375.965517,316.777193 C375.965517,327.06713 367.628751,335.408772 357.344828,335.408772 L423.448276,335.408772 C433.732199,335.408772 442.068966,327.06713 442.068966,316.777193 L442.068966,265.022807 C442.068966,264.69338 441.938178,264.377446 441.705374,264.144506 C441.47257,263.911566 441.15682,263.780702 440.827586,263.780702 Z" id="Shape" fill="url(#linearGradient-31)" fill-rule="nonzero" opacity="0.49" style="mix-blend-mode: color-burn;"></path>
                    <path d="M431.206897,261.192982 L365.103448,261.192982 C365.789043,261.192982 366.344828,261.749092 366.344828,262.435088 L366.344828,314.189474 C366.344828,324.479411 358.008061,332.821053 347.724138,332.821053 L414.137931,332.821053 C424.421854,332.821053 432.758621,324.479411 432.758621,314.189474 L432.758621,262.435088 C432.771089,262.04404 432.59869,261.669971 432.293356,261.425561 C431.988023,261.181152 431.585446,261.094972 431.206897,261.192982 Z" id="Shape" fill="#B4CAEF" fill-rule="nonzero"></path>
                    <path d="M431.206897,261.192982 L365.103448,261.192982 C365.789043,261.192982 366.344828,261.749092 366.344828,262.435088 L366.344828,281.894737 L383.827586,299.387719 C390.422872,305.931788 394.144893,314.832622 394.172414,324.126316 L394.172414,332.510526 L414.137931,332.510526 C424.421854,332.510526 432.758621,324.168884 432.758621,313.878947 L432.758621,262.124561 C432.685938,261.789455 432.478034,261.499322 432.184166,261.322897 C431.890297,261.146473 431.53661,261.099455 431.206897,261.192982 Z" id="Shape" fill="url(#linearGradient-32)" fill-rule="nonzero" opacity="0.49" style="mix-blend-mode: color-burn;"></path>
                    <rect id="Rectangle-path" fill="#CCDEF2" fill-rule="nonzero" x="232.068966" y="65.6649123" width="347.689655" height="216.333333" rx="18.3103448"></rect>
                    <path d="M561.448276,65.6649123 L541.482759,65.6649123 C546.338964,65.6649123 550.996272,67.5951605 554.430128,71.0310244 C557.863983,74.4668882 559.793103,79.1269196 559.793103,83.9859649 L559.793103,263.573684 C559.793103,273.692122 551.595283,281.894737 541.482759,281.894737 L561.448276,281.894737 C571.520378,281.837798 579.655333,273.651837 579.655172,263.573684 L579.655172,83.9859649 C579.655333,73.9078122 571.520378,65.721851 561.448276,65.6649123 Z" id="Shape" fill="#B4CAEF" fill-rule="nonzero"></path>
                    <path d="M561.448276,65.6649123 L250.37931,65.6649123 C240.266786,65.6649123 232.068966,73.8675269 232.068966,83.9859649 L232.068966,247.529825 L579.655172,247.529825 L579.655172,83.9859649 C579.655333,73.9078122 571.520378,65.721851 561.448276,65.6649123 Z" id="Shape" fill="#39CE9C" fill-rule="nonzero"></path>
                    <path d="M561.448276,65.6649123 L541.482759,65.6649123 C546.338964,65.6649123 550.996272,67.5951605 554.430128,71.0310244 C557.863983,74.4668882 559.793103,79.1269196 559.793103,83.9859649 L559.793103,247.529825 L579.655172,247.529825 L579.655172,83.9859649 C579.655333,73.9078122 571.520378,65.721851 561.448276,65.6649123 Z" id="Shape" fill="#1CACAF" fill-rule="nonzero"></path>
                    <rect id="Rectangle-path" fill="url(#linearGradient-33)" fill-rule="nonzero" opacity="0.49" style="mix-blend-mode: color-burn;" x="232.068966" y="247.529825" width="347.689655" height="11.0754386"></rect>
                    <ellipse id="Oval" fill="#B4CAEF" fill-rule="nonzero" cx="395.931034" cy="265.436842" rx="6.93103448" ry="6.93508772"></ellipse>
                    <path d="M359.724138,321.22807 C341.413793,323.815789 345.448276,331.578947 345.448276,331.578947 L386.827586,331.578947 C388.482759,330.54386 377.931034,318.433333 359.724138,321.22807 Z" id="Shape" fill="#DFEAF4" fill-rule="nonzero"></path>
                    <path d="M362.413793,321.22807 L359.206897,321.22807 C340.896552,323.815789 344.931034,331.578947 344.931034,331.578947 L383.103448,331.578947 C384.655172,330.750877 376.896552,321.22807 362.413793,321.22807 Z" id="Shape" fill="url(#linearGradient-34)" fill-rule="nonzero" opacity="0.49" style="mix-blend-mode: color-burn;"></path>
                    <rect id="Rectangle-path" fill="#1CACAF" fill-rule="nonzero" x="365.517241" y="207.368421" width="60.8275862" height="23.8070175" rx="3.72413793"></rect>
                    <path d="M379.068966,211.198246 L377.724138,212.54386 L377.724138,226.103509 L379.068966,227.449123 L385.896552,227.449123 L387.241379,226.103509 L387.241379,212.54386 L385.896552,211.198246 L379.068966,211.198246 Z M380.413793,213.889474 L384.551724,213.889474 L384.551724,217.719298 L380.413793,217.719298 L380.413793,213.889474 Z M384.551724,224.861404 L380.413793,224.861404 L380.413793,220.721053 L384.551724,220.721053 L384.551724,224.861404 Z" id="Shape" fill="#DEFFF2" fill-rule="nonzero"></path>
                    <polygon id="Shape" fill="#DEFFF2" fill-rule="nonzero" points="398 219.27193 398 220.617544 398 224.757895 393.862069 224.757895 393.862069 220.617544 393.862069 219.27193 393.862069 211.198246 391.172414 211.198246 391.172414 219.27193 391.172414 220.617544 391.172414 226.103509 392.517241 227.449123 399.344828 227.449123 400.689655 226.103509 400.689655 220.617544 400.689655 219.27193 400.689655 211.198246 398 211.198246"></polygon>
                    <polygon id="Shape" fill="#DEFFF2" fill-rule="nonzero" points="411.448276 211.198246 411.448276 218.029825 410.724138 218.029825 408.034483 218.029825 407.310345 218.029825 407.310345 211.198246 404.724138 211.198246 404.724138 219.27193 405.965517 220.617544 408.034483 220.617544 408.034483 227.449123 410.724138 227.449123 410.724138 220.617544 412.793103 220.617544 414.137931 219.27193 414.137931 211.198246"></polygon>
                    <path d="M424.482759,224.654386 L426.862069,235.005263 C427.034566,235.265464 427.325872,235.421892 427.637931,235.421892 C427.94999,235.421892 428.241296,235.265464 428.413793,235.005263 L429.551724,233.866667 C429.905146,233.550372 430.439682,233.550372 430.793103,233.866667 L435.034483,238.110526 C435.387904,238.426821 435.922441,238.426821 436.275862,238.110526 L439.482759,234.901754 C439.798868,234.548126 439.798868,234.013277 439.482759,233.659649 L435.241379,229.415789 C434.92527,229.062161 434.92527,228.527312 435.241379,228.173684 L436.37931,227.035088 C436.639359,226.86249 436.795696,226.571013 436.795696,226.258772 C436.795696,225.946531 436.639359,225.655054 436.37931,225.482456 L426.034483,223.101754 C425.757294,222.824403 425.353282,222.716086 424.974635,222.817603 C424.595988,222.919121 424.300232,223.21505 424.198773,223.593919 C424.097315,223.972787 424.20557,224.377035 424.482759,224.654386 Z" id="Shape" fill="#83E2BF" fill-rule="nonzero"></path>
                    <rect id="Rectangle-path" fill="#83E2BF" fill-rule="nonzero" x="304.586207" y="103.238596" width="62.4827586" height="69.9719298" rx="4.44827586"></rect>
                    <rect id="Rectangle-path" fill="#83E2BF" fill-rule="nonzero" x="389.206897" y="105.205263" width="98.0689655" height="6.21052632"></rect>
                    <rect id="Rectangle-path" fill="#83E2BF" fill-rule="nonzero" x="389.206897" y="120.214035" width="98.0689655" height="6.21052632"></rect>
                    <rect id="Rectangle-path" fill="#83E2BF" fill-rule="nonzero" x="389.206897" y="135.119298" width="98.0689655" height="6.21052632"></rect>
                    <rect id="Rectangle-path" fill="#83E2BF" fill-rule="nonzero" x="389.206897" y="150.12807" width="98.0689655" height="6.21052632"></rect>
                    <rect id="Rectangle-path" fill="#83E2BF" fill-rule="nonzero" x="389.206897" y="165.136842" width="48.5172414" height="6.21052632"></rect>
                    <ellipse id="Oval" fill="#CAFFE9" fill-rule="nonzero" cx="362.103448" cy="193.187719" rx="2.27586207" ry="2.27719298"></ellipse>
                    <ellipse id="Oval" fill="#83E2BF" fill-rule="nonzero" cx="375.655172" cy="193.187719" rx="2.27586207" ry="2.27719298"></ellipse>
                    <ellipse id="Oval" fill="#83E2BF" fill-rule="nonzero" cx="389.206897" cy="193.187719" rx="2.27586207" ry="2.27719298"></ellipse>
                    <ellipse id="Oval" fill="#83E2BF" fill-rule="nonzero" cx="402.655172" cy="193.187719" rx="2.27586207" ry="2.27719298"></ellipse>
                    <ellipse id="Oval" fill="#83E2BF" fill-rule="nonzero" cx="416.206897" cy="193.187719" rx="2.27586207" ry="2.27719298"></ellipse>
                    <ellipse id="Oval" fill="#83E2BF" fill-rule="nonzero" cx="429.758621" cy="193.187719" rx="2.27586207" ry="2.27719298"></ellipse>
                    <path d="M440.827586,263.780702 L374.724138,263.780702 C375.409733,263.780702 375.965517,264.336811 375.965517,265.022807 L375.965517,316.777193 C375.965517,327.06713 367.628751,335.408772 357.344828,335.408772 L423.448276,335.408772 C433.732199,335.408772 442.068966,327.06713 442.068966,316.777193 L442.068966,265.022807 C442.068966,264.69338 441.938178,264.377446 441.705374,264.144506 C441.47257,263.911566 441.15682,263.780702 440.827586,263.780702 Z" id="Shape" fill="#CCDEF2" fill-rule="nonzero"></path>
                    <path d="M440.827586,263.780702 L374.724138,263.780702 C375.409733,263.780702 375.965517,264.336811 375.965517,265.022807 L375.965517,316.777193 C375.965517,327.06713 367.628751,335.408772 357.344828,335.408772 L423.448276,335.408772 C433.732199,335.408772 442.068966,327.06713 442.068966,316.777193 L442.068966,265.022807 C442.068966,264.69338 441.938178,264.377446 441.705374,264.144506 C441.47257,263.911566 441.15682,263.780702 440.827586,263.780702 Z" id="Shape" fill="url(#linearGradient-35)" fill-rule="nonzero"></path>
                    <path d="M431.206897,261.192982 L365.103448,261.192982 C365.789043,261.192982 366.344828,261.749092 366.344828,262.435088 L366.344828,314.189474 C366.344828,324.479411 358.008061,332.821053 347.724138,332.821053 L414.137931,332.821053 C424.421854,332.821053 432.758621,324.479411 432.758621,314.189474 L432.758621,262.435088 C432.771089,262.04404 432.59869,261.669971 432.293356,261.425561 C431.988023,261.181152 431.585446,261.094972 431.206897,261.192982 Z" id="Shape" fill="url(#linearGradient-36)" fill-rule="nonzero"></path>
                    <path d="M431.206897,261.192982 L365.103448,261.192982 C365.789043,261.192982 366.344828,261.749092 366.344828,262.435088 L366.344828,281.894737 L383.827586,299.387719 C390.422872,305.931788 394.144893,314.832622 394.172414,324.126316 L394.172414,332.510526 L414.137931,332.510526 C424.421854,332.510526 432.758621,324.168884 432.758621,313.878947 L432.758621,262.124561 C432.685938,261.789455 432.478034,261.499322 432.184166,261.322897 C431.890297,261.146473 431.53661,261.099455 431.206897,261.192982 Z" id="Shape" fill="url(#linearGradient-37)" fill-rule="nonzero"></path>
                    <rect id="Rectangle-path" fill="url(#linearGradient-38)" fill-rule="nonzero" x="232.068966" y="65.6649123" width="347.689655" height="216.333333" rx="18.3103448"></rect>
                    <path d="M561.448276,65.6649123 L541.482759,65.6649123 C546.338964,65.6649123 550.996272,67.5951605 554.430128,71.0310244 C557.863983,74.4668882 559.793103,79.1269196 559.793103,83.9859649 L559.793103,263.573684 C559.793103,273.692122 551.595283,281.894737 541.482759,281.894737 L561.448276,281.894737 C571.520378,281.837798 579.655333,273.651837 579.655172,263.573684 L579.655172,83.9859649 C579.655333,73.9078122 571.520378,65.721851 561.448276,65.6649123 Z" id="Shape" fill="url(#linearGradient-39)" fill-rule="nonzero"></path>
                    <path d="M561.448276,65.4578947 L250.37931,65.4578947 C240.266786,65.4578947 232.068966,73.6605094 232.068966,83.7789474 L232.068966,247.322807 L579.655172,247.322807 L579.655172,83.7789474 C579.655333,73.7007946 571.520378,65.5148335 561.448276,65.4578947 Z" id="Shape" fill="url(#linearGradient-40)" fill-rule="nonzero"></path>
                    <path d="M561.448276,65.6649123 L541.482759,65.6649123 C546.338964,65.6649123 550.996272,67.5951605 554.430128,71.0310244 C557.863983,74.4668882 559.793103,79.1269196 559.793103,83.9859649 L559.793103,247.529825 L579.655172,247.529825 L579.655172,83.9859649 C579.655333,73.9078122 571.520378,65.721851 561.448276,65.6649123 Z" id="Shape" fill="url(#linearGradient-41)" fill-rule="nonzero"></path>
                    <rect id="Rectangle-path" fill="url(#linearGradient-42)" fill-rule="nonzero" x="232.068966" y="247.529825" width="347.689655" height="11.0754386"></rect>
                    <rect id="Rectangle-path" fill="url(#linearGradient-43)" fill-rule="nonzero" x="559.793103" y="247.529825" width="19.9655172" height="11.0754386"></rect>
                    <ellipse id="Oval" fill="url(#linearGradient-44)" fill-rule="nonzero" cx="395.931034" cy="265.436842" rx="6.93103448" ry="6.93508772"></ellipse>
                    <path d="M359.724138,321.22807 C341.413793,323.815789 345.448276,331.578947 345.448276,331.578947 L386.827586,331.578947 C388.482759,330.54386 377.931034,318.433333 359.724138,321.22807 Z" id="Shape" fill="url(#linearGradient-45)" fill-rule="nonzero"></path>
                    <rect id="Rectangle-path" fill="url(#linearGradient-46)" fill-rule="nonzero" x="365.517241" y="207.368421" width="60.8275862" height="23.8070175" rx="3.72413793"></rect>
                    <path d="M379.068966,211.198246 L377.724138,212.54386 L377.724138,226.103509 L379.068966,227.449123 L385.896552,227.449123 L387.241379,226.103509 L387.241379,212.54386 L385.896552,211.198246 L379.068966,211.198246 Z M380.413793,213.889474 L384.551724,213.889474 L384.551724,217.719298 L380.413793,217.719298 L380.413793,213.889474 Z M384.551724,224.861404 L380.413793,224.861404 L380.413793,220.721053 L384.551724,220.721053 L384.551724,224.861404 Z" id="Shape" fill="url(#linearGradient-47)" fill-rule="nonzero"></path>
                    <polygon id="Shape" fill="url(#linearGradient-47)" fill-rule="nonzero" points="398 219.27193 398 220.617544 398 224.757895 393.862069 224.757895 393.862069 220.617544 393.862069 219.27193 393.862069 211.198246 391.172414 211.198246 391.172414 219.27193 391.172414 220.617544 391.172414 226.103509 392.517241 227.449123 399.344828 227.449123 400.689655 226.103509 400.689655 220.617544 400.689655 219.27193 400.689655 211.198246 398 211.198246"></polygon>
                    <polygon id="Shape" fill="url(#linearGradient-48)" fill-rule="nonzero" points="411.448276 211.198246 411.448276 218.029825 410.724138 218.029825 408.034483 218.029825 407.310345 218.029825 407.310345 211.198246 404.724138 211.198246 404.724138 219.27193 405.965517 220.617544 408.034483 220.617544 408.034483 227.449123 410.724138 227.449123 410.724138 220.617544 412.793103 220.617544 414.137931 219.27193 414.137931 211.198246"></polygon>
                    <path d="M424.482759,224.654386 L426.862069,235.005263 C427.034566,235.265464 427.325872,235.421892 427.637931,235.421892 C427.94999,235.421892 428.241296,235.265464 428.413793,235.005263 L429.551724,233.866667 C429.905146,233.550372 430.439682,233.550372 430.793103,233.866667 L435.034483,238.110526 C435.387904,238.426821 435.922441,238.426821 436.275862,238.110526 L439.482759,234.901754 C439.798868,234.548126 439.798868,234.013277 439.482759,233.659649 L435.241379,229.415789 C434.92527,229.062161 434.92527,228.527312 435.241379,228.173684 L436.37931,227.035088 C436.639359,226.86249 436.795696,226.571013 436.795696,226.258772 C436.795696,225.946531 436.639359,225.655054 436.37931,225.482456 L426.034483,223.101754 C425.757294,222.824403 425.353282,222.716086 424.974635,222.817603 C424.595988,222.919121 424.300232,223.21505 424.198773,223.593919 C424.097315,223.972787 424.20557,224.377035 424.482759,224.654386 Z" id="Shape" fill="url(#linearGradient-49)" fill-rule="nonzero"></path>
                    <rect id="Rectangle-path" fill="url(#linearGradient-50)" fill-rule="nonzero" x="304.586207" y="103.238596" width="62.4827586" height="69.9719298" rx="4.44827586"></rect>
                    <rect id="Rectangle-path" fill="url(#linearGradient-51)" fill-rule="nonzero" x="389.206897" y="105.205263" width="98.0689655" height="6.21052632"></rect>
                    <rect id="Rectangle-path" fill="url(#linearGradient-52)" fill-rule="nonzero" x="389.206897" y="120.214035" width="98.0689655" height="6.21052632"></rect>
                    <rect id="Rectangle-path" fill="url(#linearGradient-53)" fill-rule="nonzero" x="389.206897" y="135.119298" width="98.0689655" height="6.21052632"></rect>
                    <rect id="Rectangle-path" fill="url(#linearGradient-54)" fill-rule="nonzero" x="389.206897" y="150.12807" width="98.0689655" height="6.21052632"></rect>
                    <rect id="Rectangle-path" fill="url(#linearGradient-55)" fill-rule="nonzero" x="389.206897" y="165.136842" width="48.5172414" height="6.21052632"></rect>
                    <ellipse id="Oval" fill="url(#linearGradient-56)" fill-rule="nonzero" cx="362.103448" cy="193.187719" rx="2.27586207" ry="2.27719298"></ellipse>
                    <ellipse id="Oval" fill="url(#linearGradient-57)" fill-rule="nonzero" cx="375.655172" cy="193.187719" rx="2.27586207" ry="2.27719298"></ellipse>
                    <ellipse id="Oval" fill="url(#linearGradient-57)" fill-rule="nonzero" cx="389.206897" cy="193.187719" rx="2.27586207" ry="2.27719298"></ellipse>
                    <ellipse id="Oval" fill="url(#linearGradient-57)" fill-rule="nonzero" cx="402.655172" cy="193.187719" rx="2.27586207" ry="2.27719298"></ellipse>
                    <ellipse id="Oval" fill="url(#linearGradient-57)" fill-rule="nonzero" cx="416.206897" cy="193.187719" rx="2.27586207" ry="2.27719298"></ellipse>
                    <ellipse id="Oval" fill="url(#linearGradient-57)" fill-rule="nonzero" cx="429.758621" cy="193.187719" rx="2.27586207" ry="2.27719298"></ellipse>
                    <path d="M573.344828,352.280702 L156.344828,352.280702 C155.724138,352.280702 156.344828,351.763158 156.344828,351.038596 L138.655172,332.717544 C138.655172,332.031548 139.210957,331.475439 139.896552,331.475439 L573.344828,331.475439 C576.887068,331.475439 579.758621,334.348671 579.758621,337.892982 L579.758621,345.759649 C579.786348,347.479551 579.122872,349.138596 577.917034,350.3646 C576.711196,351.590603 575.063947,352.280926 573.344828,352.280702 Z" id="Shape" fill="url(#linearGradient-58)" fill-rule="nonzero"></path>
                    <path d="M139.793103,331.578947 C139.107509,331.578947 138.551724,332.135057 138.551724,332.821053 L152.724138,351.142105 C174.448276,349.382456 203.103448,345.035088 167.931034,352.384211 L456.034483,352.384211 C428.413793,352.384211 429.034483,351.866667 429.034483,351.142105 L429.034483,333.131579 C429.034483,332.445583 428.478698,331.889474 427.793103,331.889474" id="Shape" fill="url(#linearGradient-59)" fill-rule="nonzero"></path>
                    <path d="M283.37931,305.494737 C282.784436,304.898951 282.548412,304.033026 282.758621,303.217544 C282.758621,301.768421 283.482759,299.387719 281.62069,298.249123 C276.965517,295.557895 267.551724,304.459649 266.310345,311.912281 C266.107506,313.08918 265.760043,314.236476 265.275862,315.32807 C262.910535,320.72394 258.030339,324.599376 252.241379,325.678947 C154.689655,344.82807 162.034483,322.573684 143.517241,284.275439 C139.37931,275.684211 133.172414,260.985965 128.724138,253.222807 C126.029687,248.926314 121.631594,245.983785 116.63391,245.133879 C111.636226,244.283974 106.513514,245.607397 102.551724,248.77193 C76.4827586,275.580702 125.724138,322.366667 146.206897,347.208772 C166.689655,372.050877 260,339.549123 270.344828,335.615789 C278.777026,333.479815 285.803516,327.66532 289.482759,319.778947 C291.241379,314.5 285.758621,307.978947 283.37931,305.494737 Z" id="Shape" fill="url(#linearGradient-60)" fill-rule="nonzero"></path>
                    <path d="M265.275862,315.224561 C264.625702,316.726387 263.75392,318.122053 262.689655,319.364912 L261.965517,320.192982 C247.275862,335.098246 182.517241,357.973684 159.344828,345.138596 C132.655172,330.336842 107.62069,270.715789 108.137931,255.292982 C108.137931,242.975439 116.827586,244.942105 120.344828,245.563158 L119.517241,245.563158 C113.744053,243.544824 107.331231,244.812295 102.758621,248.875439 C76.6896552,275.684211 125.931034,322.470175 146.413793,347.312281 C166.896552,372.154386 260.206897,339.652632 270.551724,335.719298 C273.397037,334.666694 276.10601,333.276664 278.62069,331.578947 C279.758621,326.196491 271.689655,327.645614 268.275862,327.542105 C264.862069,327.438596 266.724138,311.601754 266.724138,311.601754 C266.406813,312.869163 265.91964,314.08781 265.275862,315.224561 Z" id="Shape" fill="url(#linearGradient-61)" fill-rule="nonzero"></path>
                    <path d="M227.931034,57.5912281 L233.62069,53.0368421 C234.755666,52.1335148 235.417003,50.761622 235.417003,49.3105263 C235.417003,47.8594306 234.755666,46.4875378 233.62069,45.5842105 L227.931034,41.1333333 C226.293117,39.8236194 225.704922,37.5955794 226.482759,35.6473684 L229.068966,28.9192982 C229.586754,27.5733713 229.466959,26.0651537 228.743203,24.8179559 C228.019447,23.5707581 226.769736,22.7190039 225.344828,22.5017544 L218.724138,21.0526316 C216.70503,20.7233053 215.122237,19.1395864 214.793103,17.1192982 L213.655172,10.7017544 C213.554215,9.20088089 212.750363,7.8360117 211.48707,7.02050698 C210.223776,6.20500227 208.649633,6.03478383 207.241379,6.56140351 L200.517241,9.14912281 C198.570169,9.92741463 196.343431,9.33887577 195.034483,7.7 L190.482759,2.00701754 C189.579959,0.871377457 188.208868,0.209654185 186.758621,0.209654185 C185.308373,0.209654185 183.937282,0.871377457 183.034483,2.00701754 L178.482759,7.7 C177.17381,9.33887577 174.947072,9.92741463 173,9.14912281 L166.275862,6.56140351 C164.930722,6.0433122 163.423386,6.16317747 162.176917,6.88735682 C160.930448,7.61153617 160.079191,8.86197714 159.862069,10.2877193 L158.827586,17.4298246 C158.498452,19.4501128 156.915659,21.0338316 154.896552,21.3631579 L147.758621,22.3982456 C146.333712,22.6154951 145.084002,23.4672494 144.360246,24.7144471 C143.636489,25.9616449 143.516694,27.4698625 144.034483,28.8157895 L146.62069,35.5438596 C147.398527,37.4920707 146.810332,39.7201106 145.172414,41.0298246 L139.482759,45.5842105 C138.347782,46.4875378 137.686446,47.8594306 137.686446,49.3105263 C137.686446,50.761622 138.347782,52.1335148 139.482759,53.0368421 L145.172414,57.5912281 C146.810332,58.900942 147.398527,61.128982 146.62069,63.077193 L144.034483,69.8052632 C143.516694,71.1511901 143.636489,72.6594077 144.360246,73.9066055 C145.084002,75.1538033 146.333712,76.0055575 147.758621,76.222807 L154.896552,77.2578947 C156.915659,77.587221 158.498452,79.1709399 158.827586,81.1912281 L159.862069,88.3333333 C160.079191,89.7590755 160.930448,91.0095165 162.176917,91.7336958 C163.423386,92.4578752 164.930722,92.5777404 166.275862,92.0596491 L173,89.4719298 C174.947072,88.693638 177.17381,89.2821769 178.482759,90.9210526 L183.034483,96.6140351 C183.937282,97.7496752 185.308373,98.4113984 186.758621,98.4113984 C188.208868,98.4113984 189.579959,97.7496752 190.482759,96.6140351 L195.034483,90.9210526 C196.343431,89.2821769 198.570169,88.693638 200.517241,89.4719298 L207.241379,92.0596491 C208.58652,92.5777404 210.093856,92.4578752 211.340325,91.7336958 C212.586793,91.0095165 213.43805,89.7590755 213.655172,88.3333333 L214.689655,81.1912281 C215.018789,79.1709399 216.601582,77.587221 218.62069,77.2578947 L225.758621,76.222807 C227.18353,76.0055575 228.43324,75.1538033 229.156996,73.9066055 C229.880752,72.6594077 230.000547,71.1511901 229.482759,69.8052632 L226.896552,63.077193 C226.021398,61.216861 226.438566,59.0045777 227.931034,57.5912281 Z" id="Shape" fill="url(#linearGradient-62)" fill-rule="nonzero"></path>
                    <path d="M177.241379,49.3105263 L175.482759,49.3105263 C172.340449,49.3105263 169.793103,46.7616913 169.793103,43.6175439 L169.793103,34.0947368 C169.793103,30.9505895 172.340449,28.4017544 175.482759,28.4017544 L177.241379,28.4017544 C180.383689,28.4017544 182.931034,30.9505895 182.931034,34.0947368 L182.931034,43.7210526 C182.874628,46.8247038 180.343729,49.3110394 177.241379,49.3105263 Z M175.482759,31.4035088 C174.019926,31.456786 172.84635,32.6310486 172.793103,34.0947368 L172.793103,43.7210526 C172.84635,45.1847409 174.019926,46.3590034 175.482759,46.4122807 L177.241379,46.4122807 C178.704212,46.3590034 179.877788,45.1847409 179.931034,43.7210526 L179.931034,34.0947368 C179.877788,32.6310486 178.704212,31.456786 177.241379,31.4035088 L175.482759,31.4035088 Z" id="Shape" fill="#FFFFFF" fill-rule="nonzero"></path>
                    <path d="M198.137931,70.2192982 L196.896552,70.2192982 C195.387561,70.2192982 193.940375,69.6195036 192.873358,68.5518623 C191.806341,67.484221 191.206897,66.0361886 191.206897,64.5263158 L191.206897,55.0035088 C191.206897,53.4936359 191.806341,52.0456036 192.873358,50.9779623 C193.940375,49.910321 195.387561,49.3105263 196.896552,49.3105263 L198.655172,49.3105263 C200.164163,49.3105263 201.611349,49.910321 202.678366,50.9779623 C203.745383,52.0456036 204.344828,53.4936359 204.344828,55.0035088 L204.344828,64.6298246 C204.322585,66.2157401 203.64014,67.720475 202.461911,68.781501 C201.283682,69.8425271 199.716498,70.3636427 198.137931,70.2192982 Z M196.896552,52.1052632 C195.433719,52.1585404 194.260143,53.332803 194.206897,54.7964912 L194.206897,64.422807 C194.260143,65.8864953 195.433719,67.0607578 196.896552,67.1140351 L198.655172,67.1140351 C200.118005,67.0607578 201.291581,65.8864953 201.344828,64.422807 L201.344828,55.0035088 C201.385218,54.1668365 201.048413,53.3561532 200.427156,52.7946895 C199.805898,52.2332257 198.965705,51.9801917 198.137931,52.1052632 L196.896552,52.1052632 Z" id="Shape" fill="#FFFFFF" fill-rule="nonzero"></path>
                    <path d="M171.344828,70.2192982 C170.776789,70.2306078 170.254608,69.9085424 170.009476,69.3956942 C169.764344,68.8828461 169.841544,68.2739523 170.206897,67.8385965 L201.241379,28.9192982 C201.574006,28.5125169 202.098254,28.3141934 202.616644,28.3990342 C203.135035,28.4838751 203.568812,28.838991 203.754575,29.3306132 C203.940339,29.8222354 203.849868,30.3756748 203.517241,30.7824561 L172.482759,69.7017544 C172.201205,70.0376018 171.782847,70.2278759 171.344828,70.2192982 Z" id="Shape" fill="#FFFFFF" fill-rule="nonzero"></path>
                    <ellipse id="Oval" fill="url(#linearGradient-63)" fill-rule="nonzero" cx="227.827586" cy="186.666667" rx="37.862069" ry="37.8842105"></ellipse>
                    <path d="M232.068966,224.136842 C251.46185,222.36978 266.309169,206.099431 266.309169,186.614912 C266.309169,167.130393 251.46185,150.860044 232.068966,149.092982 L232.068966,224.136842 Z" id="Shape" fill="url(#linearGradient-64)" fill-rule="nonzero"></path>
                    <path d="M229.896552,172.692982 L233,179.007018 C233.341094,179.689809 234.001404,180.156183 234.758621,180.249123 L241.793103,181.284211 C242.668667,181.400482 243.397931,182.013139 243.663903,182.855875 C243.929874,183.698611 243.684518,184.619222 243.034483,185.217544 L237.965517,190.185965 C237.423669,190.727564 237.190413,191.50554 237.344828,192.25614 L238.586207,199.191228 C238.725835,200.044634 238.370311,200.903533 237.668517,201.408242 C236.966724,201.912951 236.03978,201.976366 235.275862,201.57193 L228.965517,198.259649 C228.288111,197.891519 227.470509,197.891519 226.793103,198.259649 L220.482759,201.57193 C219.718841,201.976366 218.791897,201.912951 218.090103,201.408242 C217.38831,200.903533 217.032786,200.044634 217.172414,199.191228 L218.413793,192.25614 C218.568208,191.50554 218.334951,190.727564 217.793103,190.185965 L212.724138,185.217544 C212.074103,184.619222 211.828746,183.698611 212.094718,182.855875 C212.36069,182.013139 213.089953,181.400482 213.965517,181.284211 L221,180.249123 C221.757217,180.156183 222.417527,179.689809 222.758621,179.007018 L225.862069,172.692982 C226.254465,171.941327 227.031785,171.470106 227.87931,171.470106 C228.726836,171.470106 229.504156,171.941327 229.896552,172.692982 Z" id="Shape" fill="url(#linearGradient-65)" fill-rule="nonzero"></path>
                </g>
                <g id="Group-4" transform="translate(146.000000, 400.000000)">
                    <g id="Rectangle" fill-rule="nonzero">
                        <use fill="black" fill-opacity="1" filter="url(#filter-67)" xlink:href="#path-66"></use>
                        <use fill="#FFFFFF" xlink:href="#path-66"></use>
                    </g>
                    <g id="Group-3" transform="translate(112.000000, 75.000000)" fill="#DAC026">
                        <g id="Group-2">
                            <path d="M14.224,17.6 L13.096,12.776 L16.84,9.536 L11.92,9.104 L10,4.616 L8.08,9.152 L3.16,9.536 L6.904,12.776 L5.776,17.6 L10,15.056 L14.224,17.6 Z M10,1.616 C11.8240091,1.616 13.5119922,2.07199544 15.064,2.984 C16.5680075,3.84800432 17.7519957,5.03199248 18.616,6.536 C19.5280046,8.08800776 19.984,9.77599088 19.984,11.6 C19.984,13.4240091 19.5280046,15.1119922 18.616,16.664 C17.7519957,18.1680075 16.5680075,19.3519957 15.064,20.216 C13.5119922,21.1280046 11.8240091,21.584 10,21.584 C8.17599088,21.584 6.48800776,21.1280046 4.936,20.216 C3.43199248,19.3359956 2.24800432,18.1440075 1.384,16.64 C0.47199544,15.0879922 0.016,13.408009 0.016,11.6 C0.016,9.79199096 0.47199544,8.11200776 1.384,6.56 C2.2640044,5.05599248 3.45599248,3.8640044 4.96,2.984 C6.51200776,2.07199544 8.19199096,1.616 10,1.616 Z" id="stars---material"></path>
                            <path d="M44.724,17.6 L43.596,12.776 L47.34,9.536 L42.42,9.104 L40.5,4.616 L38.58,9.152 L33.66,9.536 L37.404,12.776 L36.276,17.6 L40.5,15.056 L44.724,17.6 Z M40.5,1.616 C42.3240091,1.616 44.0119922,2.07199544 45.564,2.984 C47.0680075,3.84800432 48.2519957,5.03199248 49.116,6.536 C50.0280046,8.08800776 50.484,9.77599088 50.484,11.6 C50.484,13.4240091 50.0280046,15.1119922 49.116,16.664 C48.2519957,18.1680075 47.0680075,19.3519957 45.564,20.216 C44.0119922,21.1280046 42.3240091,21.584 40.5,21.584 C38.6759909,21.584 36.9880078,21.1280046 35.436,20.216 C33.9319925,19.3359956 32.7480043,18.1440075 31.884,16.64 C30.9719954,15.0879922 30.516,13.408009 30.516,11.6 C30.516,9.79199096 30.9719954,8.11200776 31.884,6.56 C32.7640044,5.05599248 33.9559925,3.8640044 35.46,2.984 C37.0120078,2.07199544 38.691991,1.616 40.5,1.616 Z" id="stars---material-copy"></path>
                            <path d="M75.224,17.6 L74.096,12.776 L77.84,9.536 L72.92,9.104 L71,4.616 L69.08,9.152 L64.16,9.536 L67.904,12.776 L66.776,17.6 L71,15.056 L75.224,17.6 Z M71,1.616 C72.8240091,1.616 74.5119922,2.07199544 76.064,2.984 C77.5680075,3.84800432 78.7519957,5.03199248 79.616,6.536 C80.5280046,8.08800776 80.984,9.77599088 80.984,11.6 C80.984,13.4240091 80.5280046,15.1119922 79.616,16.664 C78.7519957,18.1680075 77.5680075,19.3519957 76.064,20.216 C74.5119922,21.1280046 72.8240091,21.584 71,21.584 C69.1759909,21.584 67.4880078,21.1280046 65.936,20.216 C64.4319925,19.3359956 63.2480043,18.1440075 62.384,16.64 C61.4719954,15.0879922 61.016,13.408009 61.016,11.6 C61.016,9.79199096 61.4719954,8.11200776 62.384,6.56 C63.2640044,5.05599248 64.4559925,3.8640044 65.96,2.984 C67.5120078,2.07199544 69.191991,1.616 71,1.616 Z" id="stars---material-copy-2"></path>
                            <path d="M105.724,17.6 L104.596,12.776 L108.34,9.536 L103.42,9.104 L101.5,4.616 L99.58,9.152 L94.66,9.536 L98.404,12.776 L97.276,17.6 L101.5,15.056 L105.724,17.6 Z M101.5,1.616 C103.324009,1.616 105.011992,2.07199544 106.564,2.984 C108.068008,3.84800432 109.251996,5.03199248 110.116,6.536 C111.028005,8.08800776 111.484,9.77599088 111.484,11.6 C111.484,13.4240091 111.028005,15.1119922 110.116,16.664 C109.251996,18.1680075 108.068008,19.3519957 106.564,20.216 C105.011992,21.1280046 103.324009,21.584 101.5,21.584 C99.6759909,21.584 97.9880078,21.1280046 96.436,20.216 C94.9319925,19.3359956 93.7480043,18.1440075 92.884,16.64 C91.9719954,15.0879922 91.516,13.408009 91.516,11.6 C91.516,9.79199096 91.9719954,8.11200776 92.884,6.56 C93.7640044,5.05599248 94.9559925,3.8640044 96.46,2.984 C98.0120078,2.07199544 99.691991,1.616 101.5,1.616 Z" id="stars---material-copy-3"></path>
                            <path d="M136.224,17.6 L135.096,12.776 L138.84,9.536 L133.92,9.104 L132,4.616 L130.08,9.152 L125.16,9.536 L128.904,12.776 L127.776,17.6 L132,15.056 L136.224,17.6 Z M132,1.616 C133.824009,1.616 135.511992,2.07199544 137.064,2.984 C138.568008,3.84800432 139.751996,5.03199248 140.616,6.536 C141.528005,8.08800776 141.984,9.77599088 141.984,11.6 C141.984,13.4240091 141.528005,15.1119922 140.616,16.664 C139.751996,18.1680075 138.568008,19.3519957 137.064,20.216 C135.511992,21.1280046 133.824009,21.584 132,21.584 C130.175991,21.584 128.488008,21.1280046 126.936,20.216 C125.431992,19.3359956 124.248004,18.1440075 123.384,16.64 C122.471995,15.0879922 122.016,13.408009 122.016,11.6 C122.016,9.79199096 122.471995,8.11200776 123.384,6.56 C124.264004,5.05599248 125.455992,3.8640044 126.96,2.984 C128.512008,2.07199544 130.191991,1.616 132,1.616 Z" id="stars---material-copy-4"></path>
                        </g>
                    </g>
                    <circle id="Oval-2" fill="#F98585" fill-rule="nonzero" cx="56.5" cy="62.5" r="39.5"></circle>
                    <path d="M52.048,73.527 L69.75,55.825 L66.623,52.698 L52.048,67.22 L46.377,61.496 L43.25,64.623 L52.048,73.527 Z M56.5,38.123 L76.375,47.027 L76.375,60.277 C76.375,64.3050201 75.509342,68.1916479 73.778,71.937 C72.046658,75.611685 69.6970148,78.7563203 66.729,81.371 C63.6549846,84.0563468 60.2453521,85.8583287 56.5,86.777 C52.7546479,85.8583287 49.3450154,84.0563468 46.271,81.371 C43.3029852,78.7563203 40.953342,75.611685 39.222,71.937 C37.490658,68.1916479 36.625,64.3050201 36.625,60.277 L36.625,47.027 L56.5,38.123 Z" id="verified_user---material" fill="#3352B3"></path>
                    <rect id="Rectangle-2" fill="#635DFE" fill-rule="nonzero" x="109" y="23" width="280" height="30" rx="1"></rect>
                    <rect id="Rectangle-2-Copy" fill="#E5EBF8" fill-rule="nonzero" transform="translate(238.500000, 62.000000) scale(1, -1) translate(-238.500000, -62.000000) " x="109" y="56" width="259" height="12" rx="2"></rect>
                    <g id="Group-4-Copy" transform="translate(509.000000, 13.000000)" fill="#D8D8D8" fill-rule="nonzero">
                        <rect id="Rectangle-3" x="0" y="0" width="26" height="2" rx="1"></rect>
                        <rect id="Rectangle-3-Copy" x="0" y="4" width="26" height="2" rx="1"></rect>
                        <rect id="Rectangle-3-Copy-2" x="0" y="8" width="26" height="2" rx="1"></rect>
                    </g>
                </g>
            </g>
        </g>
    </g>
</svg>