<?xml version="1.0" encoding="UTF-8"?>
<svg width="150px" height="65px" viewBox="0 0 150 65" version="1.1" xmlns="http://www.w3.org/2000/svg" xmlns:xlink="http://www.w3.org/1999/xlink">
    <!-- Generator: Sketch 51.2 (57519) - http://www.bohemiancoding.com/sketch -->
    <title>Group 10 Copy 2</title>
    <desc>Created with Sketch.</desc>
    <defs></defs>
    <g id="Page-1" stroke="none" stroke-width="1" fill="none" fill-rule="evenodd">
        <g id="Desktop-HD" transform="translate(-55.000000, -1255.000000)">
            <g id="Group-10-Copy-2" transform="translate(55.000000, 1255.000000)">
                <g id="Group-11" transform="translate(56.000000, 0.000000)" fill-rule="nonzero">
                    <circle id="Oval-2" fill="#6EECEC" cx="19.5" cy="19.5" r="19.5"></circle>
                    <g id="if_x-22_1931886" transform="translate(6.000000, 9.000000)">
                        <path d="M25.2697238,10.7504337 C24.5108427,10.3639074 23.7302662,10.0587789 22.8301335,10.0992505 C23.3060498,9.76638316 23.757501,9.45670737 24.2029512,9.13793684 C24.9830662,8.57952 25.4474423,7.82511158 25.6233144,6.89335579 C25.9829058,4.99073684 25.5614591,3.25637053 24.4628357,1.66888421 C24.0303104,1.04407579 23.4814603,0.526130526 22.8758326,0.0186442105 C22.890604,0.0877642105 22.8984513,0.126871579 22.9072218,0.165524211 C23.0258547,0.702113684 23.1726455,1.23415579 23.2566579,1.77574737 C23.4117577,2.77571368 23.4306836,3.77977263 23.1675679,4.76973474 C22.8915272,5.81017263 22.3071334,6.59777684 21.2417456,6.96611368 C20.5599528,7.20212211 19.8536949,7.22304 19.1428209,7.14755368 C19.0925058,7.14209684 19.0301889,7.07070316 19.0084934,7.01658947 C18.9055552,6.76102737 18.7347608,6.55957895 18.4781076,6.46590316 C17.9537226,6.27445895 17.4122582,6.15395368 16.8467903,6.14531368 C16.4350373,6.13894737 16.0108209,6.15577263 15.6147626,6.06482526 C14.366117,5.77834105 13.1147018,5.82790737 11.8568242,5.94386526 C11.4455328,5.98206316 11.0319334,6.05254737 10.6224884,6.03526737 C10.2582809,6.01980632 9.90376713,6.02253474 9.55109978,6.10347789 C9.2182815,6.17941895 8.88546323,6.25854316 8.55679941,6.34994526 C8.18520619,6.45317053 7.90408784,6.66462316 7.7660675,7.03750737 C7.74760324,7.08752842 7.67420781,7.14709895 7.62250789,7.15073684 C7.34739042,7.17029053 7.07042653,7.18938947 6.79577067,7.17938526 C6.13982786,7.15528421 5.50835018,7.02750316 4.94657509,6.66962526 C4.13368607,6.15168 3.75055269,5.36725895 3.5732958,4.46733474 C3.34018452,3.28592842 3.44820044,2.11225263 3.69977598,0.946307368 C3.76486249,0.643907368 3.85395254,0.346964211 3.94442741,0 C3.7085465,0.212362105 3.50405483,0.385162105 3.31248814,0.571149474 C1.55099779,2.28550737 0.781499779,4.33818947 1.16555637,6.77103158 C1.31188563,7.69960421 1.73194753,8.48720842 2.51160088,9.05835789 C2.89658069,9.34029474 3.29079263,9.60949895 3.68223493,9.88279579 C3.77686426,9.94873263 3.87703287,10.0060295 3.97443183,10.0674189 C3.37295859,10.0710568 2.80610582,10.1738274 2.25910214,10.3875537 C1.4877577,10.6899537 0.796732793,11.1778863 0,11.32704 C0.197567576,11.4502737 0.415445836,11.5662316 0.609782167,11.7126568 C0.785192631,11.8445305 0.938445984,12.0064168 1.09677701,12.1596632 C1.60685217,12.6530526 2.24756197,12.8599579 2.9256619,13.0077474 C3.52713515,13.1391663 4.07598526,13.0286653 4.61652646,12.7703747 C4.80901636,12.6785179 5.01766249,12.6098526 5.22630862,12.5621053 C5.59651702,12.4770695 6.08905114,12.6994358 6.25338305,12.9668211 C6.48557111,13.3442526 6.7269913,13.7194105 6.99656949,14.0713768 C7.37924127,14.5711326 7.80114959,15.0413305 8.18659101,15.5392674 C8.46955578,15.9053305 8.61496183,16.3236884 8.59418954,16.7966147 C8.57341724,17.2690863 8.58403419,17.7424674 8.56880118,18.2153937 C8.56418511,18.3540884 8.53141105,18.4959663 8.48755844,18.6292042 C8.23875254,19.3836126 8.28675962,20.1148295 8.68743405,20.8042105 C9.06595136,21.4549389 9.63234252,21.8410105 10.4138423,21.8350989 C10.6423375,21.83328 10.804823,21.8910316 10.9423817,22.0597389 C11.0928654,22.2452716 11.2936643,22.3457684 11.5336996,22.3562274 C11.7128029,22.3644126 11.8937527,22.3662316 12.072856,22.3544084 C12.6050883,22.3193937 13.1363973,22.2498189 13.6686296,22.2448168 C14.0619183,22.2411789 14.4556687,22.3216674 14.8498806,22.3585011 C15.2810211,22.3989726 15.677541,22.3398568 15.9623522,21.9660632 C16.041287,21.8623832 16.1529957,21.8264589 16.2951705,21.8360084 C16.8320189,21.8710232 17.311628,21.7077726 17.6919917,21.3371621 C18.4744147,20.5750232 18.6341306,19.6582737 18.3262391,18.6410274 C18.2971578,18.5455326 18.2533052,18.4491284 18.250074,18.3518147 C18.2334562,17.8434189 18.2385338,17.3345684 18.2154535,16.8266274 C18.1909884,16.29504 18.3774774,15.8380295 18.6969091,15.4305853 C19.0228032,15.0140463 19.3667001,14.6116042 19.7082889,14.2068884 C20.0581866,13.7926232 20.4011602,13.3751747 20.6102679,12.8681432 C20.6273474,12.8267621 20.6605831,12.7867453 20.6965884,12.7599158 C20.9495487,12.5721095 21.2334367,12.4866189 21.5431746,12.5716547 C21.778594,12.6362274 22.0066276,12.7308126 22.2346612,12.8194863 C22.5697875,12.9495411 22.9026057,13.1027874 23.2732758,13.0718653 C24.2491119,12.9891032 25.1413972,12.7162611 25.8356534,11.9786779 C26.0950762,11.7031074 26.3775794,11.4416337 26.7740993,11.3429558 C26.2312501,11.2333642 25.7488713,10.9946274 25.2697238,10.7504337 Z M7.29984495,8.02064842 C7.17567281,8.17480421 7.03349801,8.24301474 6.83039116,8.21209263 C6.45741312,8.15525053 6.07474134,8.14842947 5.7086874,8.06703158 C4.82886544,7.87149474 4.15076551,7.35900632 3.59406809,6.67735579 C3.48928342,6.54912 3.39326927,6.41360842 3.28617657,6.28673684 C3.63976713,7.09525895 4.15953604,7.76736 4.98488843,8.23619368 C4.91749388,8.24437895 4.89533677,8.25392842 4.87871894,8.24847158 C4.03305586,7.95425684 3.24370877,7.56909474 2.61592395,6.91381895 C1.92997671,6.19760842 1.66455298,5.34179368 1.74210287,4.37456842 C1.83719381,3.18770526 2.37265733,2.19456 3.15600354,1.31464421 C3.16292763,1.30645895 3.17677583,1.30418526 3.18277671,1.30145684 C3.13707767,1.75892211 3.07568401,2.21820632 3.04891083,2.67930947 C2.99351805,3.63834947 3.06968312,4.58374737 3.4523549,5.48185263 C3.98043272,6.72010105 4.95488401,7.37946947 6.2856955,7.54362947 C6.69467885,7.59410526 7.11058629,7.58546526 7.5237241,7.60410947 C6.38909536,7.88104421 5.31447546,7.77145263 4.33125365,7.09571368 C5.15060516,7.91560421 6.1504448,8.18389895 7.29984495,8.02064842 Z M8.72482417,11.9873179 C8.6842028,11.6353516 8.66666175,11.2811116 8.62973324,10.9286905 C8.61588504,10.7954526 8.57526367,10.6649432 8.54710567,10.5335242 C8.55402977,10.5194274 8.56095387,10.5053305 8.56833957,10.4912337 C8.83007045,10.7104168 9.09180133,10.9300547 9.35076256,11.1469642 C9.04794871,11.6048842 9.11903611,12.1428379 9.51417126,12.4370526 C9.57833456,12.2960842 9.64157465,12.1578442 9.72466382,11.97504 C9.77405571,12.1555705 9.82529403,12.2951747 9.84837436,12.4393263 C9.87006986,12.5757474 9.94208047,12.5993937 10.0593285,12.5802947 C10.224122,12.5530105 10.3916852,12.528 10.4992395,12.3824842 C10.5569403,12.3042695 10.6137179,12.3083621 10.6968071,12.3438316 C10.7937444,12.3856674 10.8999139,12.4065853 11.0259325,12.4434189 C10.730966,12.7703747 10.3935316,12.9922863 9.95777509,13.03776 C9.28983051,13.1073347 8.80606691,12.6953432 8.72482417,11.9873179 Z M16.841251,20.3476547 C16.1525341,21.4713095 15.1762364,21.3589895 14.4372044,21.0302147 C13.7715679,20.7341811 13.0016083,20.7341811 12.3359717,21.0302147 C11.5969397,21.3589895 10.620642,21.4713095 9.93192513,20.3476547 C8.67912513,18.3040674 10.5140109,16.7652379 11.5046184,16.7652379 C11.8494385,16.7652379 12.1416354,16.8325389 12.3858252,16.9321263 C13.0279198,17.1940547 13.7447947,17.1940547 14.3868893,16.9321263 C14.6310791,16.8325389 14.9237377,16.7652379 15.2680961,16.7652379 C16.2591652,16.7647832 18.094051,18.3040674 16.841251,20.3476547 Z M18.0912814,11.9786779 C18.0345038,12.5175411 17.710456,12.9231663 17.2396174,13.0227537 C16.8297108,13.1096084 16.457656,12.9827368 16.1225297,12.7508211 C16.0015888,12.6671495 15.8968041,12.5611958 15.7675543,12.4511495 C15.9189612,12.4011284 16.0348245,12.3547453 16.1553038,12.3270063 C16.1991564,12.3170021 16.2591652,12.3424674 16.3020946,12.3683874 C16.3727204,12.4111326 16.429498,12.4779789 16.5019702,12.5152674 C16.7853966,12.6612379 16.9174161,12.6030316 16.994966,12.3079074 C17.0198927,12.2124126 17.0457427,12.1164632 17.084056,11.9714021 C17.1666836,12.1523874 17.2285388,12.2878989 17.2899325,12.4215916 C17.6716811,12.3101811 17.7829282,11.4325389 17.4441091,11.1646989 C17.7058399,10.9427874 17.9624931,10.7254232 18.2246856,10.5035116 C18.178525,11.0228211 18.1415965,11.5012042 18.0912814,11.9786779 Z M21.7582833,8.33077895 C21.7208931,8.34260211 21.6807334,8.34669474 21.6414968,8.35397053 C22.4525394,7.91514947 23.0244699,7.27124211 23.4191434,6.46817684 C23.4076032,6.45817263 23.3960631,6.44771368 23.3845229,6.43770947 C23.248349,6.59868632 23.1172528,6.76421053 22.9746164,6.91973053 C22.3163655,7.63548632 21.5136318,8.07749053 20.5239475,8.15888842 C20.3148398,8.17616842 20.1061937,8.19799579 19.8966243,8.21118316 C19.8398467,8.21482105 19.7613736,8.21436632 19.7272147,8.18162526 C19.5416489,8.00336842 19.3667001,7.81465263 19.1880584,7.62957474 C19.2000601,7.61593263 19.2116003,7.60274526 19.2236021,7.58910316 C19.3463894,7.58910316 19.4696383,7.58592 19.5924256,7.58955789 C20.2275962,7.60820211 20.8516881,7.54908632 21.4508534,7.32672 C22.5545545,6.91700211 23.2021884,6.10302316 23.5276209,5.01620211 C23.8341276,3.99349895 23.8230491,2.95124211 23.6970305,1.90443789 C23.673027,1.70571789 23.6402529,1.50790737 23.6402529,1.28826947 C23.805508,1.49881263 23.9795337,1.70344421 24.1341718,1.92126316 C24.5463864,2.50105263 24.8750503,3.12313263 25.0499991,3.81433263 C25.4012817,5.20491789 24.930443,6.49773474 23.7681179,7.36264421 C23.1620286,7.81374316 22.476543,8.10522947 21.7582833,8.33077895 Z" id="Shape" fill="#2F5BE7"></path>
                        <path d="M10.8994523,17.8114358 C10.7609704,17.8619116 10.5458618,17.9869642 10.5537091,18.1474863 C10.5624796,18.3221053 10.8163632,18.4517053 10.963154,18.4680758 C11.201343,18.4944505 11.4686131,18.2529853 11.7515779,18.3580295 C11.8665179,18.4007747 11.9403749,18.5853979 12.0867042,18.7618358 C12.1337881,18.0192505 11.5618576,17.5713347 10.8994523,17.8114358 Z" id="Shape" fill="#393737"></path>
                        <path d="M15.9840478,17.8305347 C15.3276433,17.5131284 14.6698541,17.9815074 14.7280165,18.7613811 C14.9061966,18.4316968 15.1088419,18.2488926 15.5053618,18.4612547 C15.6235331,18.5244632 15.8377185,18.4739874 15.9798933,18.4130526 C16.0883708,18.3666695 16.2166974,18.2229726 16.2194671,18.1192926 C16.2222367,18.0228884 16.0906789,17.88192 15.9840478,17.8305347 Z" id="Shape" fill="#393737"></path>
                    </g>
                </g>
                <path d="M16.968,64.28 L13.44,64.28 L12.048,60.848 L4.944,60.848 L3.528,64.28 L0,64.28 L6.96,48.2 L10.008,48.2 L16.968,64.28 Z M10.824,57.896 L8.496,52.16 L6.144,57.896 L10.824,57.896 Z M33.696,51.944 C36.192,51.944 38.352,53.864 38.352,56.792 L38.352,64.28 L35.208,64.28 L35.208,57.44 C35.208,55.832 34.176,54.848 32.856,54.848 C31.176,54.848 30.072,56 30.072,58.52 L30.072,64.28 L26.904,64.28 L26.904,57.44 C26.904,55.832 25.872,54.848 24.552,54.848 C22.872,54.848 21.816,56 21.816,58.52 L21.816,64.28 L18.648,64.28 L18.648,52.304 L21.816,52.304 L21.816,53.288 C22.656,52.448 23.832,51.944 25.392,51.944 C27,51.944 28.464,52.64 29.328,53.912 C30.312,52.688 31.776,51.944 33.696,51.944 Z M48.552,51.944 C51.6,51.944 54.432,54.536 54.432,58.304 C54.432,62.072 51.6,64.64 48.552,64.64 C46.92,64.64 45.6,64.16 44.592,63.344 L44.592,64.28 L41.424,64.28 L41.424,47 L44.592,47 L44.592,53.264 C45.6,52.424 46.92,51.944 48.552,51.944 Z M48,61.88 C49.92,61.88 51.36,60.512 51.36,58.304 C51.36,56.096 49.92,54.704 48,54.704 C46.296,54.704 44.592,56.096 44.592,58.304 C44.592,60.512 46.296,61.88 48,61.88 Z M68.88,52.304 L68.88,64.28 L65.712,64.28 L65.712,63.344 C64.704,64.16 63.384,64.64 61.752,64.64 C58.704,64.64 55.872,62.072 55.872,58.304 C55.872,54.536 58.704,51.944 61.752,51.944 C63.384,51.944 64.704,52.424 65.712,53.264 L65.712,52.304 L68.88,52.304 Z M62.304,61.88 C64.008,61.88 65.712,60.512 65.712,58.304 C65.712,56.096 64.008,54.704 62.304,54.704 C60.384,54.704 58.944,56.096 58.944,58.304 C58.944,60.512 60.384,61.88 62.304,61.88 Z M71.232,61.112 L74.424,60.464 C74.592,61.688 75.648,62.096 76.896,62.096 C78.072,62.096 78.768,61.568 78.768,60.896 C78.768,60.464 78.48,60.032 77.448,59.816 L75,59.312 C72.84,58.856 71.616,57.632 71.616,55.904 C71.616,53.6 73.488,51.944 76.512,51.944 C79.344,51.944 81.312,53.408 81.72,55.496 L78.696,56.096 C78.576,55.136 77.736,54.44 76.416,54.44 C75.144,54.44 74.784,55.064 74.784,55.616 C74.784,56 74.928,56.408 75.864,56.624 L78.72,57.248 C80.832,57.704 81.864,59.024 81.864,60.632 C81.864,63.272 79.728,64.64 76.608,64.64 C73.968,64.64 71.544,63.608 71.232,61.112 Z M83.304,61.112 L86.496,60.464 C86.664,61.688 87.72,62.096 88.968,62.096 C90.144,62.096 90.84,61.568 90.84,60.896 C90.84,60.464 90.552,60.032 89.52,59.816 L87.072,59.312 C84.912,58.856 83.688,57.632 83.688,55.904 C83.688,53.6 85.56,51.944 88.584,51.944 C91.416,51.944 93.384,53.408 93.792,55.496 L90.768,56.096 C90.648,55.136 89.808,54.44 88.488,54.44 C87.216,54.44 86.856,55.064 86.856,55.616 C86.856,56 87,56.408 87.936,56.624 L90.792,57.248 C92.904,57.704 93.936,59.024 93.936,60.632 C93.936,63.272 91.8,64.64 88.68,64.64 C86.04,64.64 83.616,63.608 83.304,61.112 Z M108.432,52.304 L108.432,64.28 L105.264,64.28 L105.264,63.344 C104.256,64.16 102.936,64.64 101.304,64.64 C98.256,64.64 95.424,62.072 95.424,58.304 C95.424,54.536 98.256,51.944 101.304,51.944 C102.936,51.944 104.256,52.424 105.264,53.264 L105.264,52.304 L108.432,52.304 Z M101.856,61.88 C103.56,61.88 105.264,60.512 105.264,58.304 C105.264,56.096 103.56,54.704 101.856,54.704 C99.936,54.704 98.496,56.096 98.496,58.304 C98.496,60.512 99.936,61.88 101.856,61.88 Z M123.84,47 L123.84,64.28 L120.672,64.28 L120.672,63.344 C119.664,64.16 118.344,64.64 116.712,64.64 C113.664,64.64 110.832,62.072 110.832,58.304 C110.832,54.536 113.664,51.944 116.712,51.944 C118.344,51.944 119.664,52.424 120.672,53.264 L120.672,47 L123.84,47 Z M117.264,61.88 C118.968,61.88 120.672,60.512 120.672,58.304 C120.672,56.096 118.968,54.704 117.264,54.704 C115.344,54.704 113.904,56.096 113.904,58.304 C113.904,60.512 115.344,61.88 117.264,61.88 Z M132.768,52.016 C136.272,52.016 139.224,54.536 139.224,58.304 C139.224,62.072 136.272,64.592 132.768,64.592 C129.192,64.592 126.24,62.072 126.24,58.304 C126.24,54.536 129.192,52.016 132.768,52.016 Z M132.768,61.88 C134.424,61.88 136.152,60.536 136.152,58.304 C136.152,56.072 134.424,54.728 132.768,54.728 C131.04,54.728 129.312,56.072 129.312,58.304 C129.312,60.536 131.04,61.88 132.768,61.88 Z M149.088,52.136 C149.4,52.136 149.64,52.136 149.928,52.232 L149.76,55.28 L149.064,55.28 C146.136,55.28 144.792,57.08 144.792,60.416 L144.792,64.28 L141.624,64.28 L141.624,52.304 L144.792,52.304 L144.792,54.488 C145.752,53.096 147.144,52.136 149.088,52.136 Z" id="Ambassador" fill="#000000"></path>
            </g>
        </g>
    </g>
</svg>