<?xml version="1.0" encoding="UTF-8"?>
<svg width="82px" height="11px" viewBox="0 0 82 11" version="1.1" xmlns="http://www.w3.org/2000/svg" xmlns:xlink="http://www.w3.org/1999/xlink">
    <!-- Generator: Sketch 51.2 (57519) - http://www.bohemiancoding.com/sketch -->
    <title>Ambassador</title>
    <desc>Created with Sketch.</desc>
    <defs></defs>
    <g id="Page-1" stroke="none" stroke-width="1" fill="none" fill-rule="evenodd">
        <g id="Desktop-HD" transform="translate(-820.000000, -163.000000)" fill="#000000">
            <path d="M829.3645,173 L827.8565,173 L826.9985,170.972 L822.7605,170.972 L821.9025,173 L820.3945,173 L824.2295,164.29 L825.5295,164.29 L829.3645,173 Z M826.4525,169.698 L824.8795,165.993 L823.3065,169.698 L826.4525,169.698 Z M838.4255,166.37 C839.7645,166.37 840.8695,167.371 840.8695,168.892 L840.8695,173 L839.5305,173 L839.5305,169.165 C839.5305,168.216 838.9065,167.618 838.0745,167.618 C837.0215,167.618 836.3325,168.359 836.3325,169.802 L836.3325,173 L834.9805,173 L834.9805,169.165 C834.9805,168.216 834.3565,167.618 833.5245,167.618 C832.4845,167.618 831.8085,168.359 831.8085,169.802 L831.8085,173 L830.4565,173 L830.4565,166.552 L831.8085,166.552 L831.8085,167.28 C832.2765,166.708 832.9525,166.37 833.8755,166.37 C834.7985,166.37 835.6045,166.799 836.0205,167.553 C836.5405,166.825 837.3595,166.37 838.4255,166.37 Z M846.4725,166.37 C848.1625,166.37 849.6705,167.748 849.6705,169.776 C849.6705,171.817 848.1625,173.182 846.4725,173.182 C845.4975,173.182 844.6915,172.844 844.1325,172.259 L844.1325,173 L842.7805,173 L842.7805,163.64 L844.1325,163.64 L844.1325,167.293 C844.6915,166.708 845.4975,166.37 846.4725,166.37 Z M846.2515,171.986 C847.4345,171.986 848.3575,171.141 848.3575,169.776 C848.3575,168.424 847.4345,167.566 846.2515,167.566 C845.1855,167.566 844.1325,168.424 844.1325,169.776 C844.1325,171.141 845.1855,171.986 846.2515,171.986 Z M857.4705,166.552 L857.4705,173 L856.1185,173 L856.1185,172.259 C855.5595,172.844 854.7535,173.182 853.7785,173.182 C852.0885,173.182 850.5805,171.817 850.5805,169.776 C850.5805,167.748 852.0885,166.37 853.7785,166.37 C854.7535,166.37 855.5595,166.708 856.1185,167.293 L856.1185,166.552 L857.4705,166.552 Z M853.9995,171.986 C855.0655,171.986 856.1185,171.141 856.1185,169.776 C856.1185,168.424 855.0655,167.566 853.9995,167.566 C852.8165,167.566 851.8935,168.424 851.8935,169.776 C851.8935,171.141 852.8165,171.986 853.9995,171.986 Z M858.9785,171.271 L860.3305,170.985 C860.4215,171.752 861.0975,172.077 861.9425,172.077 C862.7225,172.077 863.2165,171.726 863.2165,171.219 C863.2165,170.829 862.9435,170.582 862.3455,170.452 L860.9415,170.166 C859.8235,169.919 859.1865,169.321 859.1865,168.411 C859.1865,167.215 860.1875,166.37 861.7345,166.37 C863.2165,166.37 864.2175,167.15 864.4515,168.229 L863.1645,168.502 C863.0605,167.878 862.5275,167.449 861.6955,167.449 C860.9025,167.449 860.5515,167.839 860.5515,168.294 C860.5515,168.658 860.7595,168.892 861.3315,169.022 L862.8655,169.36 C863.9055,169.581 864.5425,170.192 864.5425,171.102 C864.5425,172.454 863.4375,173.182 861.8255,173.182 C860.3825,173.182 859.1475,172.571 858.9785,171.271 Z M865.5305,171.271 L866.8825,170.985 C866.9735,171.752 867.6495,172.077 868.4945,172.077 C869.2745,172.077 869.7685,171.726 869.7685,171.219 C869.7685,170.829 869.4955,170.582 868.8975,170.452 L867.4935,170.166 C866.3755,169.919 865.7385,169.321 865.7385,168.411 C865.7385,167.215 866.7395,166.37 868.2865,166.37 C869.7685,166.37 870.7695,167.15 871.0035,168.229 L869.7165,168.502 C869.6125,167.878 869.0795,167.449 868.2475,167.449 C867.4545,167.449 867.1035,167.839 867.1035,168.294 C867.1035,168.658 867.3115,168.892 867.8835,169.022 L869.4175,169.36 C870.4575,169.581 871.0945,170.192 871.0945,171.102 C871.0945,172.454 869.9895,173.182 868.3775,173.182 C866.9345,173.182 865.6995,172.571 865.5305,171.271 Z M878.9335,166.552 L878.9335,173 L877.5815,173 L877.5815,172.259 C877.0225,172.844 876.2165,173.182 875.2415,173.182 C873.5515,173.182 872.0435,171.817 872.0435,169.776 C872.0435,167.748 873.5515,166.37 875.2415,166.37 C876.2165,166.37 877.0225,166.708 877.5815,167.293 L877.5815,166.552 L878.9335,166.552 Z M875.4625,171.986 C876.5285,171.986 877.5815,171.141 877.5815,169.776 C877.5815,168.424 876.5285,167.566 875.4625,167.566 C874.2795,167.566 873.3565,168.424 873.3565,169.776 C873.3565,171.141 874.2795,171.986 875.4625,171.986 Z M887.3315,163.64 L887.3315,173 L885.9665,173 L885.9665,172.272 C885.3945,172.844 884.6015,173.182 883.6265,173.182 C881.9495,173.182 880.4285,171.817 880.4285,169.776 C880.4285,167.748 881.9495,166.37 883.6265,166.37 C884.6015,166.37 885.3945,166.708 885.9665,167.293 L885.9665,163.64 L887.3315,163.64 Z M883.8475,171.986 C884.9265,171.986 885.9665,171.141 885.9665,169.776 C885.9665,168.424 884.9265,167.566 883.8475,167.566 C882.6775,167.566 881.7545,168.424 881.7545,169.776 C881.7545,171.141 882.6775,171.986 883.8475,171.986 Z M892.2845,166.409 C894.1825,166.409 895.7295,167.774 895.7295,169.776 C895.7295,171.778 894.1825,173.156 892.2845,173.156 C890.3735,173.156 888.8135,171.778 888.8135,169.776 C888.8135,167.774 890.3735,166.409 892.2845,166.409 Z M892.2845,171.986 C893.3895,171.986 894.4165,171.115 894.4165,169.776 C894.4165,168.437 893.3895,167.566 892.2845,167.566 C891.1535,167.566 890.1395,168.437 890.1395,169.776 C890.1395,171.115 891.1535,171.986 892.2845,171.986 Z M901.0465,166.474 C901.2025,166.474 901.3325,166.474 901.5015,166.526 L901.4105,167.826 C901.3065,167.813 901.1505,167.813 901.0335,167.813 C899.3955,167.813 898.5895,168.957 898.5895,170.725 L898.5895,173 L897.2375,173 L897.2375,166.552 L898.5895,166.552 L898.5895,167.93 C899.1095,167.072 899.9285,166.474 901.0465,166.474 Z" id="Ambassador"></path>
        </g>
    </g>
</svg>